<svg width="355" height="120" viewBox="0 0 355 120" fill="none" xmlns="http://www.w3.org/2000/svg">
<g clip-path="url(#clip0_14159_14191)">
<path d="M333.342 40.695H309.008C305.13 40.695 302.442 36.795 303.763 33.159L314.166 4.743C314.678 3.357 315.598 2.16072 316.803 1.31342C318.008 0.466116 319.441 0.00798143 320.911 0C323.909 0 326.552 1.86 327.656 4.656L338.544 33.069C338.871 33.9185 338.987 34.8354 338.882 35.7401C338.777 36.6449 338.455 37.5103 337.942 38.2614C337.43 39.0125 336.743 39.6266 335.942 40.0507C335.14 40.4747 334.248 40.6959 333.342 40.695Z" fill="#0D73FF"/>
<path d="M333.252 10.4609C332.151 10.4609 331.092 10.7279 330.167 11.1719L338.541 33.0239C338.869 33.8732 338.985 34.79 338.881 35.6948C338.776 36.5996 338.454 37.4651 337.942 38.2164C337.43 38.9676 336.743 39.5819 335.941 40.0059C335.14 40.43 334.247 40.6511 333.342 40.6499H317.164L316.105 43.5749C315.796 44.4232 315.696 45.3339 315.813 46.2294C315.929 47.125 316.259 47.979 316.775 48.7188C317.29 49.4586 317.975 50.0625 318.772 50.4789C319.569 50.8954 320.454 51.1122 321.352 51.1109H345.683C346.589 51.1124 347.481 50.8917 348.283 50.468C349.084 50.0443 349.771 49.4304 350.284 48.6795C350.796 47.9285 351.119 47.0633 351.224 46.1586C351.329 45.254 351.213 44.3373 350.886 43.4879L339.997 15.0719C339.453 13.7182 338.522 12.5573 337.321 11.7364C336.12 10.9155 334.704 10.4716 333.252 10.4609Z" fill="#FF6B73"/>
<path d="M326.466 15.2039C327.139 13.4316 328.465 11.9878 330.168 11.1719L338.542 33.0239C338.869 33.8731 338.986 34.7899 338.881 35.6947C338.777 36.5995 338.454 37.4651 337.942 38.2163C337.43 38.9675 336.743 39.5818 335.942 40.0059C335.14 40.4299 334.248 40.651 333.342 40.6499H317.164L326.466 15.2039Z" fill="black"/>
<path d="M330.168 11.1719C328.465 11.9878 327.139 13.4316 326.466 15.2039L317.164 40.6499H333.342C334.248 40.651 335.14 40.4299 335.942 40.0059C336.743 39.5818 337.43 38.9675 337.942 38.2163C338.455 37.4651 338.777 36.5995 338.881 35.6947C338.986 34.7899 338.869 33.8731 338.542 33.0239L330.168 11.1719ZM45.625 90.3899H17.3682L12.8725 103.422H0L23.2301 38.1689H40.0255L63.2556 103.419H49.9864L45.625 90.3869V90.3899ZM41.9646 79.7039L39.408 72.1679C36.5859 63.8789 33.6325 55.7219 31.4727 48.0989C29.2711 55.7219 26.3595 64.1009 23.5374 72.3449L21.0703 79.7039H41.9646ZM68.2823 43.8869C68.283 42.9598 68.4666 42.0421 68.8223 41.1869C69.1781 40.3316 69.6989 39.5558 70.3548 38.9044C71.0107 38.2529 71.7885 37.7387 72.6433 37.3916C73.498 37.0444 74.4128 36.8712 75.3346 36.8819C79.3022 36.8819 82.3869 39.9839 82.3869 43.8869C82.3869 47.7419 79.2575 50.8919 75.3346 50.8919C71.4117 50.8919 68.2823 47.7419 68.2823 43.8869ZM81.286 103.422H69.3831V56.4299H81.286V103.419V103.422ZM120.032 57.2729L117.917 67.6469C115.45 66.9809 113.511 66.7169 111.965 66.7169C105.662 66.7169 101.739 71.7689 101.739 80.2349V103.422H89.8359V56.4299H100.904V63.3479C103.105 58.8239 106.852 55.8989 112.583 55.8989C115.184 55.8989 117.168 56.4749 120.032 57.2729ZM180.161 103.422H167.375V74.5619H138.369V103.422H125.586V38.1689H138.369V63.7469H167.375V38.1689H180.158V103.419L180.161 103.422ZM225.386 88.3499L232.045 95.7059C225.213 102.711 218.775 104.886 211.192 104.886C196.118 104.886 186.685 95.1299 186.685 80.1479C186.685 65.6069 195.456 54.8789 210.178 54.8789C224.417 54.8789 232.045 63.8789 232.045 78.3299C232.045 79.7939 231.955 82.0079 231.866 83.0279H198.323C199.337 89.8109 203.346 94.7759 211.502 94.7759C217.012 94.7759 219.921 92.9579 225.386 88.3499ZM198.63 74.4719H220.497C220.052 68.2229 216.395 64.2779 209.871 64.2779C203.567 64.2779 199.907 68.3999 198.63 74.4719ZM251.528 103.422H239.67V38.1689H251.528V103.419V103.422ZM306.496 79.9259C306.496 95.1749 297.636 104.751 285.733 104.751C279.43 104.751 274.845 102.534 271.76 98.5889V120H259.857V56.4749H270.925V62.6369C274.054 57.9389 278.86 55.1009 285.823 55.1009C297.681 55.1009 306.496 64.7219 306.496 79.9259ZM294.417 79.9259C294.417 71.1059 290.098 65.3849 283.09 65.3849C276.214 65.3849 271.277 70.8839 271.277 79.9259C271.277 89.1029 276.39 94.3769 282.956 94.3769C289.746 94.3319 294.417 88.8359 294.417 79.9259Z" fill="black"/>
</g>
<defs>
<clipPath id="clip0_14159_14191">
<rect width="355" height="120" fill="white"/>
</clipPath>
</defs>
</svg>
