<svg width="502" height="139" viewBox="0 0 502 139" fill="none" xmlns="http://www.w3.org/2000/svg">
<g clip-path="url(#clip0_1_2619)">
<path d="M498.986 52.0205C498.111 53.578 496.882 54.7925 495.302 55.6605C493.719 56.5298 492.065 56.9638 490.341 56.9638C488.622 56.9638 486.972 56.5298 485.389 55.6605C483.805 54.7925 482.571 53.578 481.687 52.0205C480.808 50.4638 480.366 48.8359 480.366 47.1406C480.366 45.4313 480.813 43.7871 481.714 42.2102C482.611 40.6333 483.858 39.4191 485.441 38.5702C487.029 37.7225 488.666 37.2987 490.341 37.2987C492.008 37.2987 493.64 37.7225 495.237 38.5702C496.829 39.4191 498.072 40.6333 498.964 42.2102C499.857 43.7871 500.303 45.4313 500.303 47.1406C500.303 48.8359 499.866 50.4638 498.986 52.0205ZM500.679 41.2251C499.616 39.3363 498.129 37.8829 496.217 36.8685C494.305 35.8516 492.349 35.3438 490.341 35.3438C488.338 35.3438 486.378 35.8516 484.47 36.8685C482.558 37.8829 481.066 39.3363 479.994 41.2251C478.922 43.1151 478.389 45.0878 478.389 47.1406C478.389 49.168 478.914 51.1218 479.973 52.9965C481.027 54.8712 482.501 56.3259 484.4 57.3619C486.294 58.3992 488.272 58.9159 490.341 58.9159C492.411 58.9159 494.392 58.3992 496.287 57.3619C498.181 56.3259 499.656 54.8712 500.706 52.9965C501.756 51.1218 502.281 49.168 502.281 47.1406C502.281 45.0878 501.747 43.1151 500.679 41.2251ZM489.694 46.5145H487.174V42.6862H489.536C490.547 42.6862 491.243 42.76 491.614 42.9063C491.995 43.0502 492.284 43.2716 492.498 43.5682C492.708 43.8659 492.813 44.2019 492.813 44.5773C492.813 45.1591 492.594 45.6286 492.157 45.9825C491.715 46.3365 490.897 46.5145 489.694 46.5145ZM492.432 48.6539C492.161 48.3945 491.794 48.1705 491.343 47.9806C492.45 47.8979 493.338 47.5138 494.008 46.8265C494.677 46.1378 495.014 45.332 495.014 44.4058C495.014 43.7476 494.813 43.1291 494.41 42.5449C494.012 41.9633 493.474 41.5547 492.796 41.3205C492.117 41.0851 491.028 40.9693 489.519 40.9693H485.1V53.6532H487.174V48.2619H488.394C489.125 48.2619 489.676 48.4085 490.057 48.7012C490.608 49.098 491.33 50.0819 492.227 51.6525L493.369 53.6532H495.902L494.336 51.1691C493.583 49.9931 492.953 49.1553 492.432 48.6539ZM454.698 61.0299V51.9146H437.758V117.022H456.124V85.7911C456.124 79.7886 456.702 75.7553 457.861 73.6925C459.021 71.6292 461.086 70.5971 464.052 70.5971C464.809 70.5971 465.653 70.6531 466.589 70.7665C467.517 70.8785 468.497 71.0478 469.525 71.2718V50.6191C466.48 50.9206 463.754 51.9146 461.339 53.6025C458.924 55.2899 456.711 57.7666 454.698 61.0299ZM413.148 45.4431H431.453V29.6865H413.148V45.4431ZM413.148 117.022H431.453V51.9146H413.148V117.022ZM387.565 92.9372C387.565 97.1779 386.956 100.197 385.741 101.998C384.523 103.797 382.566 104.699 379.867 104.699C378.042 104.699 376.588 104.08 375.503 102.842C374.42 101.603 373.879 99.9538 373.879 97.8893C373.879 94.9633 374.971 92.526 377.158 90.5738C379.344 88.6239 382.813 86.9925 387.565 85.6778V92.9372ZM406.84 98.7905V73.6925C406.84 67.2398 406.317 62.7939 405.271 60.3553C404.226 57.9171 402.412 55.8359 399.827 54.1091C397.81 52.7966 395.312 51.7925 392.327 51.0978C389.343 50.4039 385.948 50.0578 382.148 50.0578C373.709 50.0578 367.416 51.8498 363.272 55.4312C359.128 59.0139 357.055 64.4831 357.055 71.8353H375.534V71.3851C375.534 68.6091 376.074 66.5551 377.158 65.2238C378.24 63.8925 379.903 63.2253 382.148 63.2253C384.009 63.2253 385.435 63.7218 386.424 64.7158C387.413 65.7112 387.907 67.1645 387.907 69.0773C387.907 72.1918 384.466 74.9853 377.586 77.462C375.191 78.3251 373.288 79.0199 371.883 79.5445C366.029 81.8711 361.818 84.6291 359.252 87.8158C356.685 91.0052 355.402 95.0578 355.402 99.9718C355.402 105.598 356.913 110.064 359.937 113.365C362.958 116.666 367.054 118.317 372.225 118.317C375.455 118.317 378.449 117.706 381.206 116.488C383.963 115.269 386.501 113.46 388.82 111.057L389.903 117.022H409.179C408.342 115.335 407.743 113.149 407.383 110.467C407.02 107.785 406.84 103.893 406.84 98.7905ZM243.556 99.3531C242.662 102.054 241.017 103.405 238.623 103.405C236.417 103.405 234.868 102.363 233.975 100.28C233.081 98.1999 232.636 94.3998 232.636 88.8851C232.636 78.1571 233.1 71.5352 234.033 69.0213C234.963 66.5078 236.647 65.2518 239.078 65.2518C241.209 65.2518 242.709 66.3398 243.585 68.5151C244.459 70.6912 244.895 74.7245 244.895 80.6133C244.895 90.4058 244.448 96.6511 243.556 99.3531ZM258.81 55.5725C257.403 53.9218 255.636 52.6452 253.508 51.7453C251.377 50.8445 249.021 50.3951 246.436 50.3951C243.319 50.3951 240.495 51.1459 237.966 52.6452C235.438 54.1471 233.32 56.3605 231.609 59.2852V51.9146H214.672V138.913H232.978V111.282C234.689 113.834 236.608 115.738 238.737 116.994C240.867 118.252 243.319 118.879 246.094 118.879C252.557 118.879 257.033 116.572 259.524 111.958C262.013 107.343 263.258 97.6272 263.258 82.8078C263.258 73.4671 262.925 67.0998 262.261 63.7026C261.594 60.3085 260.446 57.5973 258.81 55.5725ZM188.633 92.9372C188.633 97.1779 188.026 100.197 186.809 101.998C185.591 103.797 183.634 104.699 180.934 104.699C179.11 104.699 177.656 104.08 176.574 102.842C175.489 101.603 174.947 99.9538 174.947 97.8893C174.947 94.9633 176.04 92.526 178.226 90.5738C180.411 88.6239 183.881 86.9925 188.633 85.6778V92.9372ZM207.909 98.7905V73.6925C207.909 67.2398 207.386 62.7939 206.341 60.3553C205.294 57.9171 203.479 55.8359 200.894 54.1091C198.879 52.7966 196.379 51.7925 193.395 51.0978C190.41 50.4039 187.017 50.0578 183.216 50.0578C174.775 50.0578 168.483 51.8498 164.34 55.4312C160.196 59.0139 158.123 64.4831 158.123 71.8353H176.601V71.3851C176.601 68.6091 177.142 66.5551 178.226 65.2238C179.31 63.8925 180.973 63.2253 183.216 63.2253C185.078 63.2253 186.503 63.7218 187.493 64.7158C188.482 65.7112 188.975 67.1645 188.975 69.0773C188.975 72.1918 185.535 74.9853 178.653 77.462C176.257 78.3251 174.357 79.0199 172.95 79.5445C167.096 81.8711 162.886 84.6291 160.319 87.8158C157.754 91.0052 156.471 95.0578 156.471 99.9718C156.471 105.598 157.983 110.064 161.004 113.365C164.027 116.666 168.122 118.317 173.293 118.317C176.525 118.317 179.519 117.706 182.276 116.488C185.031 115.269 187.569 113.46 189.889 111.057L190.971 117.022H210.247C209.41 115.335 208.81 113.149 208.45 110.467C208.089 107.785 207.909 103.893 207.909 98.7905ZM136.647 75.3239V75.6612H124.273C124.235 75.2491 124.205 74.7805 124.188 74.2551C124.167 73.7305 124.159 72.9973 124.159 72.0606C124.159 68.6459 124.643 66.1985 125.614 64.7158C126.582 63.2358 128.188 62.4938 130.432 62.4938C132.637 62.4938 134.262 63.2533 135.308 64.7731C136.353 66.2913 136.876 68.6459 136.876 71.8353C136.876 72.5099 136.798 73.6732 136.647 75.3239ZM149.137 57.4293C147.159 55.0291 144.594 53.2179 141.439 51.9973C138.281 50.7793 134.537 50.1698 130.203 50.1698C125.945 50.1698 122.21 50.7325 118.998 51.8586C115.784 52.9825 113.134 54.6525 111.042 56.8671C108.875 59.2305 107.345 62.2313 106.453 65.87C105.558 69.5091 105.112 75.9233 105.112 85.1151C105.112 93.4438 105.548 99.5032 106.424 103.292C107.299 107.081 108.762 110.12 110.814 112.409C112.639 114.397 115.186 115.953 118.455 117.08C121.725 118.203 125.375 118.767 129.405 118.767C137.389 118.767 143.396 116.844 147.425 112.999C151.455 109.154 153.47 103.423 153.47 95.8072V94.1758H136.192C136.192 94.3271 136.21 94.5131 136.248 94.738C136.362 95.9013 136.42 96.7645 136.42 97.3271C136.42 100.104 135.886 102.176 134.823 103.544C133.759 104.915 132.18 105.598 130.089 105.598C127.693 105.598 126.003 104.709 125.015 102.927C124.024 101.145 123.531 97.9645 123.531 93.3865C123.531 92.3011 123.607 90.3866 123.76 87.6478C123.76 87.3473 123.778 87.1045 123.816 86.9159H153.813V79.0938C153.813 72.3052 153.45 67.5018 152.729 64.6878C152.007 61.8751 150.808 59.4545 149.137 57.4293ZM86.429 50.6191C83.0077 50.6191 80.0717 51.3051 77.6195 52.6732C75.1669 54.0426 73.1609 56.098 71.6026 58.8358V30.3611H53.2398V117.022H71.6026V76.3371C71.6026 72.8105 72.1818 70.0625 73.3429 68.0925C74.501 66.1233 76.1088 65.1385 78.1611 65.1385C79.9081 65.1385 81.1269 65.7772 81.8108 67.0512C82.4959 68.3278 82.8376 71.5732 82.8376 76.7865V117.022H101.142V71.61C101.142 64.3313 99.9631 59.0139 97.6062 55.6565C95.2494 52.2991 91.5237 50.6191 86.429 50.6191ZM48.1311 91.4191H29.9953C29.9953 91.7931 30.0159 92.3186 30.0533 92.9945C30.0895 93.6691 30.1101 94.1565 30.1101 94.4571C30.1101 98.2471 29.6625 101.014 28.7697 102.758C27.8757 104.503 26.4605 105.373 24.5215 105.373C22.2781 105.373 20.7481 104.146 19.9315 101.689C19.1136 99.2311 18.7047 93.4998 18.7047 84.4965C18.7047 75.1178 19.1136 69.3218 19.9315 67.1072C20.7481 64.8939 22.3155 63.7879 24.6351 63.7879C26.6501 63.7879 28.086 64.6139 28.9426 66.2633C29.7966 67.9153 30.2236 70.6912 30.2236 74.592V76.4492H48.0161V75.3239C48.0161 66.6951 46.116 60.3465 42.3128 56.2751C38.5123 52.2051 32.5806 50.1698 24.5215 50.1698C15.5491 50.1698 9.21878 52.7025 5.53179 57.7666C1.84479 62.8311 0 71.7425 0 84.4965C0 97.2531 1.83318 106.153 5.5034 111.198C9.17105 116.243 15.5104 118.767 24.5215 118.767C32.5045 118.767 38.4555 116.713 42.3709 112.605C46.2849 108.498 48.2444 102.279 48.2444 93.9505C48.2444 93.688 48.2239 93.2846 48.1876 92.7399C48.1504 92.1965 48.1311 91.7551 48.1311 91.4191Z" fill="#004D9F"/>
<path d="M307.966 74.2691C307.962 76.7471 307.96 79.2273 307.954 81.7066C307.951 85.7771 307.881 89.8572 307.515 93.9172C307.359 95.6751 307.143 97.4465 306.724 99.1659C306.324 100.8 305.613 102.338 304.244 103.404C304.224 103.421 304.201 103.439 304.177 103.456C304.057 103.523 303.945 103.619 303.827 103.699C303.577 103.86 303.316 103.999 303.045 104.119L303.037 104.123C302.764 104.244 302.481 104.346 302.192 104.43C301.381 104.664 300.521 104.752 299.67 104.752C299.54 104.752 299.408 104.749 299.278 104.746C297.935 104.69 296.597 104.424 295.422 103.787C295.109 103.618 294.823 103.403 294.542 103.181C294.396 103.067 294.259 102.945 294.126 102.82C293.943 102.643 293.766 102.46 293.607 102.266C293.509 102.148 293.415 102.026 293.324 101.9C293.167 101.68 293.02 101.453 292.888 101.219C292.822 101.101 292.759 100.98 292.698 100.86C292.571 100.602 292.456 100.339 292.353 100.07C292.306 99.9438 292.261 99.8165 292.218 99.6878C292.141 99.4538 292.073 99.2158 292.011 98.9738C291.921 98.6212 291.846 98.2638 291.774 97.9033C291.718 97.6198 291.653 97.3371 291.607 97.0506C291.511 96.4613 291.427 95.8711 291.362 95.2778C291.309 94.8106 291.264 94.3438 291.223 93.8765C291.193 93.5646 291.177 93.2518 291.153 92.9398C291.083 92.0399 291.024 91.1391 290.98 90.2365C290.971 90.048 290.963 89.8611 290.954 89.6739C290.913 88.6952 290.882 87.7152 290.863 86.7365C290.86 86.6411 290.857 86.5458 290.855 86.4491C290.822 84.6698 290.82 82.8905 290.822 81.1111C290.824 79.4071 290.826 77.7026 290.833 75.9985C290.834 75.6231 290.836 75.2478 290.836 74.8711C290.841 73.3845 290.845 71.8965 290.847 70.4099C290.848 69.9085 290.85 69.4085 290.851 68.9071C290.852 68.3353 290.853 67.7652 290.855 67.1938C290.855 66.906 290.856 66.6185 290.857 66.3311C290.865 63.5066 290.888 60.6812 291.006 57.8585C291.029 57.3085 291.063 56.7586 291.094 56.21C291.113 55.8626 291.131 55.5152 291.153 55.1691C291.19 54.6179 291.239 54.0671 291.287 53.5158C291.343 52.8845 291.392 52.2519 291.468 51.6232C291.518 51.2225 291.571 50.8213 291.631 50.4218C291.733 49.7446 291.848 49.0638 292.004 48.3918C292.084 48.0431 292.19 47.6993 292.297 47.3571C292.425 46.9472 292.571 46.5399 292.757 46.1545C293.112 45.4479 293.576 44.8166 294.11 44.2045C294.37 43.9372 294.655 43.6916 294.965 43.4702C296.305 42.5105 297.937 42.0893 299.571 41.9938C299.79 41.9798 300.009 41.9734 300.23 41.9734C301.685 41.9734 303.15 42.27 304.344 43.1304C305.702 44.1078 306.4 45.5931 306.785 47.166C307.208 48.902 307.409 50.6839 307.566 52.458C307.725 54.264 307.818 56.0739 307.881 57.8865C307.96 60.2218 307.979 62.5559 307.978 64.8913C307.974 68.0172 307.969 71.1431 307.966 74.2691ZM330.999 70.5578C330.999 70.5578 330.999 70.5031 330.998 70.35C330.993 69.5052 330.986 68.6599 330.978 67.8151C330.963 66.6058 330.943 65.3979 330.918 64.1891C330.878 62.5813 330.831 60.9752 330.768 59.3665C330.622 55.6819 330.399 51.9911 329.941 48.3293C329.496 44.7685 328.748 41.2034 327.376 37.8676C325.991 34.4974 323.717 31.5129 320.891 29.1876C320.882 29.1813 320.875 29.1736 320.865 29.1673C320.819 29.1291 320.773 29.0909 320.726 29.054C320.681 29.0184 320.632 28.9904 320.588 28.9547C320.119 28.5831 319.632 28.2344 319.132 27.9073C319.045 27.85 318.959 27.7889 318.871 27.7342C318.325 27.388 317.764 27.0711 317.187 26.7771C317.126 26.744 317.062 26.7134 316.999 26.6816C315.197 25.7818 313.272 25.12 311.288 24.7064C309.182 24.2647 307.041 24.084 304.899 24.084C303.721 24.084 302.543 24.1387 301.369 24.2342C301 24.2647 300.631 24.2991 300.264 24.3373C300.252 24.3385 300.237 24.3398 300.222 24.3411C300.199 24.3436 300.176 24.3462 300.15 24.3487C299.374 24.4314 298.599 24.5396 297.828 24.6605C297.523 24.7089 297.221 24.7649 296.918 24.8184C296.412 24.9087 295.909 25.0093 295.409 25.1174C295.078 25.1887 294.747 25.2574 294.418 25.3376C293.71 25.5094 293.005 25.6991 292.31 25.9116C291.954 26.0198 291.606 26.1471 291.255 26.2667C290.856 26.4016 290.46 26.5404 290.068 26.6905C289.856 26.772 289.638 26.8344 289.428 26.9196C289.231 26.9998 289.042 27.0978 288.848 27.1831C288.603 27.2874 288.361 27.402 288.119 27.514C287.715 27.6998 287.31 27.8844 286.916 28.0893C286.292 28.41 285.679 28.7511 285.078 29.1176C284.786 29.2984 284.5 29.4842 284.215 29.6738C282.89 30.566 281.645 31.5753 280.505 32.7029C277.967 35.2102 275.903 38.266 274.608 41.5725C273.3 44.912 272.635 48.4925 272.207 52.0345C271.768 55.6705 271.597 59.3346 271.461 62.9925C271.187 70.4366 271.17 77.9078 271.385 85.3518C271.491 88.9678 271.641 92.5999 272.066 96.1953C272.483 99.7373 273.155 103.286 274.466 106.624C277.129 113.189 282.78 118.29 289.512 120.611C293.008 121.837 296.71 122.439 300.408 122.64C301.216 122.685 302.027 122.709 302.84 122.709C305.657 122.709 308.479 122.424 311.204 121.714C314.784 120.779 318.149 119.115 320.936 116.693C323.656 114.331 325.864 111.343 327.254 108.038C327.368 107.771 327.458 107.495 327.562 107.225C327.655 106.991 327.743 106.754 327.829 106.519C327.927 106.246 328.029 105.975 328.118 105.701C328.261 105.27 328.396 104.836 328.522 104.398C328.536 104.343 328.547 104.289 328.562 104.234C328.761 103.526 328.941 102.812 329.101 102.093C329.115 102.03 329.133 101.965 329.148 101.9C329.325 101.088 329.485 100.273 329.62 99.4538C329.727 98.8098 329.821 98.1658 329.908 97.5218C330.021 96.6739 330.119 95.8225 330.206 94.9711C330.249 94.5218 330.292 94.0738 330.329 93.6245C330.336 93.5445 330.341 93.4631 330.347 93.3826C330.453 92.1493 330.545 90.9151 330.613 89.6791C330.673 88.6226 330.722 87.5665 330.762 86.5099C330.892 83.2111 330.967 79.9085 330.998 76.6058C331.008 74.8479 331.007 73.0905 331 71.3339C331 71.0758 330.999 70.8172 330.999 70.5578Z" fill="#FF4600"/>
<path d="M349.34 57.2582C349.061 53.7661 348.683 50.2836 347.813 46.8829C347.012 43.747 345.724 40.8083 343.712 38.2412C342.798 37.0766 341.762 36.0088 340.606 35.0759C340.062 34.6279 339.476 34.2245 338.879 33.8478C338.557 33.6454 338.225 33.457 337.888 33.275C337.732 33.191 337.571 33.1096 337.413 33.0294C337.286 32.967 337.083 32.9148 336.98 32.8219C336.608 32.6998 336.245 32.4834 335.889 32.3179C335.428 32.1054 334.969 31.8941 334.51 31.6816L331.856 30.4572V4.51264C331.856 2.2892 330.323 0.363562 328.054 0.0441069C327.019 -0.100984 325.931 0.145925 324.909 0.293562C321.351 0.797562 317.79 1.30538 314.231 1.81192C313.155 1.96592 312.079 2.11738 311.005 2.27011C308.719 2.59592 307.049 4.21102 306.279 6.36322C305.874 7.50229 305.954 8.69864 305.954 9.88483V22.0496C305.954 22.0279 308.048 22.1526 308.272 22.1692C308.845 22.2138 309.231 22.2672 309.804 22.3321V9.18229C309.804 8.33464 309.703 6.72849 310.911 6.55791C313.614 6.17229 316.317 5.78791 319.021 5.40356C320.794 5.15029 322.566 4.89829 324.34 4.64629C324.906 4.5661 325.473 4.48722 326.038 4.40576C326.311 4.36629 326.654 4.27338 326.928 4.33447C327.747 4.52029 327.524 5.79556 327.524 6.40776V28.4578L323.897 26.7828C323.292 26.5041 322.688 26.2254 322.085 25.9454C321.83 25.8296 321.552 25.6539 321.279 25.5738C322.931 26.3438 324.461 27.3416 325.826 28.5392C326.141 28.8128 326.444 29.1018 326.741 29.3945C326.894 29.5498 327.045 29.705 327.195 29.8616L327.524 30.2561C327.624 30.4114 327.729 30.5501 327.831 30.6634C327.975 30.8225 328.12 30.9854 328.261 31.1496C328.547 31.4868 328.826 31.8318 329.089 32.1856C331.247 35.0734 332.476 38.4843 333.263 41.9576C334.868 48.9908 334.924 56.2949 335.155 63.4668C335.275 67.1816 335.271 70.9069 335.262 74.6248C335.254 78.3348 335.216 82.047 335.093 85.7561C334.974 89.3489 334.797 92.9469 334.401 96.5208C334.021 99.9683 333.451 103.504 332.265 106.782C331.105 110.143 329.248 113.295 326.792 115.9C324.294 118.559 321.149 120.548 317.659 121.685C316.262 122.139 314.822 122.46 313.368 122.672C317.265 122.109 328.958 120.468 330.889 120.118C331.807 119.953 332.72 119.736 333.614 119.462C334.039 119.332 334.458 119.184 334.871 119.025L335.179 118.907C335.179 118.907 339.594 117.695 342.765 114.259C345.936 110.824 347.177 106.097 347.177 106.097C347.329 106.128 347.636 104.824 347.675 104.694C347.717 104.55 347.76 104.406 347.801 104.263C348.249 102.676 348.569 101.064 348.834 99.4403C349.374 96.1743 349.574 92.8463 349.709 89.5449C349.854 86.023 349.914 82.4976 349.925 78.9736C349.945 71.7356 349.865 64.4783 349.34 57.2582Z" fill="#B33100"/>
<path d="M336.651 111.629C336.651 106.792 339.533 102.875 343.088 102.875H338.72C335.165 102.875 332.616 106.792 332.616 111.629C332.616 116.466 335.165 120.388 338.72 120.388H342.713C339.333 120.12 336.651 116.292 336.651 111.629Z" fill="#8F2600"/>
<path d="M349.073 111.629C349.073 116.466 346.269 120.388 342.811 120.388C339.351 120.388 336.546 116.466 336.546 111.629C336.546 106.792 339.351 102.875 342.811 102.875C346.269 102.875 349.073 106.792 349.073 111.629Z" fill="#FF4600"/>
</g>
<defs>
<clipPath id="clip0_1_2619">
<rect width="502" height="139" fill="white"/>
</clipPath>
</defs>
</svg>
