<svg width="483" height="121" viewBox="0 0 483 121" fill="none" xmlns="http://www.w3.org/2000/svg">
<g clip-path="url(#clip0_1_2649)">
<g clip-path="url(#clip1_1_2649)">
<path d="M96.6199 56.5529C89.6199 56.5529 85.6199 53.5529 82.0099 50.8429C78.3999 48.1329 75.4099 45.9029 69.0699 46.3929C58.5699 47.2029 51.84 48.2629 45.9 49.1929C43.56 49.5529 41.3599 49.9029 39.0599 50.1929C38.5727 50.2586 38.0774 50.2276 37.6021 50.1018C37.1269 49.9761 36.6811 49.7579 36.2901 49.4598C35.8992 49.1617 35.5708 48.7896 35.3237 48.3646C35.0766 47.9396 34.9156 47.4701 34.8499 46.9829C34.7843 46.4957 34.8152 46.0003 34.941 45.5251C35.0668 45.0498 35.285 44.604 35.583 44.2131C35.8811 43.8222 36.2533 43.4938 36.6783 43.2467C37.1032 42.9995 37.5727 42.8386 38.0599 42.7729C40.2699 42.4729 42.44 42.1329 44.74 41.7729C50.81 40.8229 57.7399 39.7729 68.4899 38.9029C77.6399 38.1929 82.5499 41.9029 86.4899 44.8229C89.6699 47.2129 92.2199 49.0829 96.7999 49.0429C99.2299 49.0429 103.88 45.9229 104.68 43.2929C104.969 42.3434 105.623 41.5477 106.499 41.0807C107.375 40.6138 108.4 40.5138 109.35 40.8029C110.299 41.092 111.095 41.7464 111.562 42.6222C112.029 43.498 112.129 44.5234 111.84 45.4729C109.97 51.6329 102.26 56.4729 96.8399 56.5329L96.6199 56.5529Z" fill="#FF5421"/>
<path d="M68 81.0128C63.31 81.0128 57.9 80.8728 49.71 80.6728L39.19 80.4128C38.2274 80.3455 37.3278 79.9098 36.6783 79.1963C36.0287 78.4828 35.6792 77.5464 35.7024 76.5818C35.7256 75.6172 36.1197 74.6986 36.8027 74.0171C37.4858 73.3356 38.4053 72.9437 39.37 72.9228L49.9 73.1828C63.9 73.5428 69.69 73.6828 77.54 73.2828C80.31 73.1428 81.94 71.8228 84.54 69.4928C87.61 66.7828 91.44 63.4028 98.34 63.3228H109.84C110.8 63.3724 111.704 63.7886 112.366 64.4855C113.027 65.1823 113.396 66.1067 113.396 67.0678C113.396 68.0288 113.027 68.9532 112.366 69.6501C111.704 70.3469 110.8 70.7631 109.84 70.8128H98.37C94.3 70.8128 92.18 72.7328 89.49 75.1028C86.8 77.4728 83.4 80.4828 77.88 80.7628C74.44 80.9428 71.39 81.0128 68 81.0128Z" fill="#FF5421"/>
<path d="M38.74 65.063C37.7802 65.0133 36.8762 64.5971 36.2144 63.9003C35.5526 63.2034 35.1836 62.279 35.1836 61.3179C35.1836 60.3569 35.5526 59.4325 36.2144 58.7356C36.8762 58.0388 37.7802 57.6226 38.74 57.5729C44.23 57.5729 61.65 56.963 70.16 56.523C71.1213 56.5221 72.0462 56.8905 72.7438 57.552C73.4413 58.2135 73.8581 59.1177 73.9081 60.0777C73.9582 61.0377 73.6377 61.9803 73.0127 62.7108C72.3878 63.4412 71.5062 63.9038 70.55 64.003C61.77 64.453 44.44 65.063 38.74 65.063Z" fill="#FF5421"/>
<path d="M65.32 122.413C51.68 122.413 38.42 118.533 27.86 110.893C12.76 99.9626 3.66997 84.2626 2.25997 66.6726C1.60601 57.7676 2.89388 48.8269 6.03453 40.4685C9.17519 32.1101 14.0937 24.5335 20.45 18.2626C32.3 6.40263 48.58 0.552628 66.3 1.87263C83 3.08263 98 10.5526 106.31 21.7226C114.62 32.8926 113.85 40.8326 111.75 45.5426C109.65 50.2526 107.23 54.4226 99.69 56.1626C99.2023 56.2978 98.6924 56.333 98.1908 56.2659C97.6893 56.1988 97.2065 56.0309 96.7715 55.7723C96.3366 55.5137 95.9584 55.1697 95.6599 54.7611C95.3614 54.3525 95.1487 53.8877 95.0346 53.3948C94.9204 52.9018 94.9073 52.3908 94.9958 51.8926C95.0844 51.3944 95.2729 50.9192 95.55 50.4958C95.827 50.0723 96.1869 49.7094 96.608 49.4287C97.029 49.148 97.5025 48.9555 98 48.8626C102.11 47.8626 103.21 46.2826 104.9 42.4926C106.71 38.4126 105.08 32.6326 100.29 26.1926C93.29 16.8426 80.09 10.3826 65.75 9.34263C50.24 8.21263 36 13.2626 25.75 23.5526C20.1632 29.0566 15.839 35.7087 13.0764 43.0486C10.3138 50.3885 9.17882 58.2409 9.74997 66.0626C11 81.4426 19 95.2026 32.25 104.823C49.46 117.283 74.95 118.343 95.68 107.463C115.85 96.8826 128 77.2926 129.82 52.9726C120.12 44.6626 117.21 41.5226 115.74 34.4126C114.74 29.6526 115.99 25.4126 119.04 22.9726C120.295 21.9968 121.802 21.3979 123.385 21.2457C124.968 21.0934 126.561 21.3941 127.98 22.1126C136.23 26.0026 137.4 39.0026 137.52 44.4126C137.52 46.1926 137.52 47.9426 137.52 49.6826L138.77 50.7426L141.61 53.1526C142.85 54.1526 144.3 55.4626 145.69 56.6726C146.075 56.9927 146.392 57.3865 146.622 57.831C146.852 58.2754 146.991 58.7614 147.03 59.2604C147.07 59.7594 147.009 60.2612 146.851 60.7363C146.694 61.2114 146.443 61.6501 146.113 62.0266C145.783 62.4032 145.381 62.7098 144.931 62.9286C144.481 63.1474 143.992 63.2739 143.492 63.3005C142.992 63.3272 142.492 63.2535 142.021 63.0838C141.55 62.9142 141.118 62.6519 140.75 62.3126C139.39 61.1226 138.34 60.2026 137.12 59.1726L136.77 58.8726C133.48 83.3526 120.25 103.053 99.19 114.093C88.7368 119.558 77.1159 122.413 65.32 122.413ZM124.13 28.7026C123.965 28.6959 123.804 28.7532 123.68 28.8626C123.22 29.2226 122.57 30.4826 123.07 32.8626C123.84 36.5826 124.91 38.4826 129.98 43.1126C129.51 33.6026 126.54 29.6726 124.79 28.8426C124.582 28.7507 124.357 28.703 124.13 28.7026Z" fill="#FF5421"/>
<path d="M257.31 85.6327C257.31 80.8327 257.31 76.0327 257.31 71.2427C257.377 68.2132 257.284 65.1823 257.03 62.1627C256.23 55.2727 252.65 50.2927 246.3 47.6327C240.946 45.4294 235.036 44.9573 229.4 46.2827C224.334 47.2592 219.825 50.1174 216.78 54.2827C214.973 56.7067 213.819 59.5545 213.43 62.5527H224C224.513 60.7621 225.493 59.14 226.839 57.8522C228.185 56.5643 229.849 55.6569 231.66 55.2227C234.347 54.5405 237.165 54.5646 239.84 55.2927C241.76 55.7156 243.487 56.7602 244.752 58.2645C246.018 59.7688 246.752 61.6488 246.84 63.6127C247.08 66.2427 245.97 67.7827 243.42 68.2027C240.22 68.7327 236.99 69.1127 233.8 69.6927C230.024 70.2239 226.289 71.0124 222.62 72.0527C219.717 72.9679 217.167 74.7545 215.315 77.1698C213.463 79.5851 212.4 82.512 212.27 85.5527C211.96 92.6327 215.27 98.3727 221.51 101.283C229.83 105.183 242.99 103.283 249.39 95.9327C250.119 96.7095 250.905 97.4315 251.74 98.0927C255.536 101.075 260.335 102.479 265.14 102.013V93.1527C264.76 93.1527 264.38 93.1527 263.99 93.0827C259.76 92.6927 257.32 89.9627 257.31 85.6327ZM244.67 87.8527C242.29 91.8527 238.51 93.5427 234.13 94.0627C231.927 94.4544 229.658 94.2223 227.58 93.3927C226.029 92.7009 224.744 91.5248 223.919 90.0409C223.093 88.557 222.77 86.8453 223 85.1627C223.38 81.7427 226 79.1027 229.87 78.4227C233.59 77.7727 237.33 77.2627 241.06 76.6927L246.93 75.7927C247 80.0827 246.84 84.1627 244.67 87.8527Z" fill="#FF5421"/>
<path d="M180 93.2229C173.2 91.4929 168 84.2229 168.62 77.4929H208.34C208.432 76.981 208.486 76.4629 208.5 75.9429C208.4 73.2829 208.5 70.5929 208.11 67.9429C207.27 61.7829 205.26 56.5329 200.59 52.3129C193.72 46.0729 185.59 44.7529 176.89 46.9629C173.794 47.6996 170.882 49.0651 168.336 50.9746C165.79 52.8842 163.664 55.2969 162.09 58.0629C158.598 64.1112 157.166 71.1303 158.01 78.0629C158.56 83.4429 160.08 88.5029 163.34 92.7729C169.96 101.443 178.86 104.493 189.34 102.773C197.72 101.383 203.66 96.5629 207.24 88.7729C207.58 88.0329 207.84 87.2429 208.13 86.4329H197.81C193.7 93.5529 186.41 94.8529 180 93.2229ZM183.34 55.4429C191.86 55.3729 197.39 60.3429 197.67 68.7329H168.94C169.07 61.2529 175.66 55.5529 183.35 55.4429H183.34Z" fill="#FF5421"/>
<path d="M384.91 102.833H395.6V49.0928H384.91V102.833Z" fill="#FF5421"/>
<path d="M390.16 20.8326C389.179 20.8404 388.21 21.0415 387.307 21.4243C386.405 21.8071 385.586 22.3641 384.899 23.0635C384.212 23.7628 383.669 24.5908 383.302 25.5001C382.935 26.4094 382.751 27.3821 382.76 28.3626C382.754 29.3475 382.942 30.3239 383.314 31.2361C383.685 32.1483 384.233 32.9784 384.925 33.6791C386.323 35.094 388.226 35.8956 390.215 35.9076C392.204 35.9195 394.116 35.1408 395.531 33.7427C396.946 32.3446 397.748 30.4417 397.76 28.4526C397.775 27.4495 397.588 26.4537 397.212 25.5238C396.835 24.5939 396.277 23.7489 395.568 23.0386C394.86 22.3284 394.016 21.7672 393.087 21.3883C392.158 21.0094 391.163 20.8204 390.16 20.8326Z" fill="#FF5421"/>
<path d="M487.59 69.9528C487.587 68.1892 487.493 66.4269 487.31 64.6728C486.43 55.9628 481.17 48.2028 471.13 47.2728C464.574 46.4948 457.961 48.1455 452.54 51.9128V21.3428H442.18V22.9128C442.18 28.8028 442.18 35.1028 442.18 40.9828C442.18 46.0628 439.18 49.0728 434.18 49.0928H421.86V31.9828H411.52V49.1428H404.65V58.3728H411.52V85.0128C411.48 89.7435 413.32 94.2966 416.635 97.6717C419.95 101.047 424.469 102.968 429.2 103.013H430.66V93.0128C428.262 92.8641 426.013 91.799 424.379 90.0381C422.744 88.2771 421.85 85.9551 421.88 83.5528C421.88 75.6228 421.88 65.5528 421.88 60.2528C421.88 59.7728 421.88 58.8828 421.93 58.4328C428.75 58.4328 435.42 58.8428 442.24 58.8428C442.24 73.7628 442.24 88.1628 442.24 102.973H452.57V101.253C452.57 91.5994 452.57 81.9561 452.57 72.3228C452.584 70.9847 452.681 69.6488 452.86 68.3228C453.8 61.5928 458.19 55.9928 466.86 56.9128C471.33 57.4028 474.77 59.5128 476.18 64.0328C476.829 66.1904 477.166 68.4298 477.18 70.6828C477.28 80.9528 477.18 91.2328 477.18 101.513V103.043H487.6V101.373C487.6 90.8628 487.62 80.4128 487.59 69.9528Z" fill="#FF5421"/>
<path d="M368.19 49.0329C364.35 62.3429 360.51 75.6429 356.58 89.2429C356.33 88.6829 356.21 88.4529 356.13 88.2429C351.797 75.5229 347.463 62.7962 343.13 50.0629C343.069 49.7486 342.89 49.4698 342.629 49.2837C342.369 49.0977 342.047 49.0186 341.73 49.0629C338.843 49.1096 335.95 49.1096 333.05 49.0629C332.744 49.0257 332.436 49.1095 332.191 49.2963C331.947 49.4831 331.785 49.7582 331.74 50.0629C328.153 60.7296 324.543 71.3629 320.91 81.9629C320.11 84.3429 319.29 86.7229 318.35 89.4829C314.35 75.7629 310.4 62.4829 306.48 49.1329H282.37V31.9629H272V43.1529C272.008 43.9193 271.865 44.6798 271.578 45.3908C271.292 46.1018 270.868 46.7494 270.331 47.2965C269.795 47.8436 269.155 48.2794 268.45 48.5791C267.744 48.8787 266.986 49.0364 266.22 49.0429H265.13V58.3629H272V85.0029C271.979 87.3457 272.419 89.6697 273.297 91.8423C274.174 94.0148 275.47 95.9933 277.112 97.6647C278.754 99.3362 280.709 100.668 282.865 101.584C285.021 102.5 287.337 102.982 289.68 103.003H291.14V93.0029C288.749 92.8469 286.509 91.78 284.881 90.022C283.254 88.264 282.362 85.9486 282.39 83.5529C282.39 75.6229 282.39 58.3329 282.39 58.3329H298.14L305 79.6229C307.37 86.9629 309.75 94.3029 312.08 101.623C312.11 101.826 312.181 102.021 312.288 102.196C312.395 102.371 312.536 102.523 312.703 102.643C312.87 102.762 313.06 102.847 313.26 102.891C313.461 102.936 313.668 102.94 313.87 102.903C316.67 102.823 319.47 102.843 322.28 102.903C323.2 102.903 323.56 102.603 323.86 101.713C326.28 94.3429 328.78 87.0029 331.24 79.6429C333.17 73.8729 335.06 68.0929 336.97 62.3129L337.26 62.3629C338.34 65.4629 339.43 68.5529 340.5 71.6629C343.94 81.6629 347.37 91.6896 350.79 101.743C350.856 102.111 351.064 102.439 351.368 102.655C351.673 102.872 352.051 102.961 352.42 102.903C355.09 102.833 357.76 102.813 360.42 102.903C361.63 102.903 362.08 102.483 362.42 101.363C367.12 86.5229 371.847 71.6996 376.6 56.8929C377.43 54.2929 378.23 51.6829 379.08 48.9829L368.19 49.0329Z" fill="#FF5421"/>
</g>
</g>
<defs>
<clipPath id="clip0_1_2649">
<rect width="483" height="120" fill="white" transform="translate(0 0.553223)"/>
</clipPath>
<clipPath id="clip1_1_2649">
<rect width="487.32" height="123" fill="white" transform="translate(0 0.552734)"/>
</clipPath>
</defs>
</svg>
