<svg width="596" height="121" viewBox="0 0 596 121" fill="none" xmlns="http://www.w3.org/2000/svg">
<g clip-path="url(#clip0_1_2666)">
<path d="M243.272 64.2658L264.267 35.2741C264.889 34.3753 264.382 33.4995 263.368 33.4995H251.96C251.315 33.4995 250.555 33.753 250.186 34.3983L236.335 54.5865L222.162 34.3983C221.77 33.7761 221.01 33.4995 220.388 33.4995H208.219C207.574 33.4995 207.205 34.0065 207.205 34.5135C207.205 34.767 207.205 35.0206 207.459 35.2741L228.523 64.358L205.316 96.2766C204.67 97.1523 205.2 98.0511 206.076 98.0511H217.622C218.244 98.0511 219.028 97.7976 219.397 97.1523L235.437 74.0373L251.73 97.1523C252.122 97.7976 252.882 98.0511 253.505 98.0511H265.811C266.433 98.0511 266.825 97.5441 266.825 97.0371C266.825 96.7836 266.71 96.5301 266.572 96.2766L243.272 64.2658Z" fill="#191D3A"/>
<path d="M196.42 9.2784C197.319 9.2784 197.941 9.90065 197.941 10.7994V19.4186C197.941 20.2943 197.319 20.9396 196.42 20.9396H155.467V46.5667H192.249C193.147 46.5667 193.77 47.1889 193.77 48.0877V56.5917C193.77 57.4904 193.147 58.1127 192.249 58.1127H155.467V86.1365H196.42C197.319 86.1365 197.941 86.7587 197.941 87.6575V96.5302C197.941 97.429 197.319 98.0512 196.42 98.0512H148.484C144.797 98.0512 142.009 95.2627 142.009 91.5753V15.7313C142.009 12.0439 144.797 9.25537 148.484 9.25537H196.42V9.2784Z" fill="#191D3A"/>
<path d="M307.639 89.0394C295.218 89.0394 286.714 80.6737 286.714 65.8321C286.714 50.9906 295.218 42.3714 307.639 42.3714C320.061 42.3714 328.427 50.9906 328.427 65.8321C328.427 80.6737 320.061 89.0394 307.639 89.0394ZM309.921 31.4707C297.499 31.4707 290.908 36.9326 287.105 42.0027V35.0198C287.105 34.121 286.483 33.4987 285.584 33.4987H275.559C274.684 33.4987 274.038 34.144 274.038 35.0198V118.584C274.038 119.46 274.684 120.105 275.559 120.105H285.7C286.598 120.105 287.221 119.46 287.221 118.584V89.7999C290.908 94.87 297.499 99.9401 309.921 99.9401C330.086 99.9401 341.885 84.7298 341.885 65.6939C341.885 46.681 330.086 31.4707 309.921 31.4707Z" fill="#191D3A"/>
<path d="M363.664 59.3793C365.185 48.8012 370.716 41.8874 381.732 41.8874C393.024 41.8874 398.97 48.3633 399.869 59.3793H363.664ZM381.824 31.4707C364.194 31.4707 350.113 44.1459 350.113 65.2099C350.113 86.7578 362.535 99.9631 383.46 99.9631C395.513 99.9631 405.515 94.6395 411.738 87.2879C412.106 86.8961 412.245 86.5273 412.245 86.1356C412.245 85.7438 412.129 85.375 411.738 84.9833L405.907 79.2679C405.515 78.8992 405.147 78.7609 404.755 78.7609C404.386 78.7609 403.994 79.0144 403.602 79.4062C398.786 84.6145 392.564 89.0394 383.576 89.0394C370.439 89.0394 364.125 80.9503 363.157 69.266H411.853C412.752 69.266 413.374 68.6207 413.374 67.7449V65.2099C413.397 45.9205 401.736 31.4707 381.824 31.4707Z" fill="#191D3A"/>
<path d="M562.665 89.2006C550.244 89.2006 541.878 80.5814 541.878 65.7399C541.878 50.8983 550.244 42.5326 562.665 42.5326C575.087 42.5326 583.591 50.8983 583.591 65.7399C583.591 80.5814 575.087 89.2006 562.665 89.2006ZM594.745 33.5217H584.72C583.845 33.5217 583.199 34.1439 583.199 35.0427V42.1409C579.397 37.0708 572.805 31.6089 560.13 31.6089C540.219 31.6089 528.419 46.8192 528.419 65.8551C528.419 84.868 540.219 100.101 560.13 100.101C572.805 100.101 579.397 94.6394 583.199 89.5693V96.5522C583.199 97.428 583.845 98.0733 584.72 98.0733H594.745C595.644 98.0733 596.266 97.428 596.266 96.5522V35.0427C596.266 34.167 595.621 33.5217 594.745 33.5217Z" fill="#191D3A"/>
<path d="M455.894 89.178C443.472 89.178 435.106 80.5588 435.106 65.7173C435.106 50.8757 443.472 42.51 455.894 42.51C468.315 42.51 476.819 50.8757 476.819 65.7173C476.796 80.5588 468.315 89.178 455.894 89.178ZM487.974 9.27783H477.833C476.958 9.27783 476.312 9.90008 476.312 10.7989V42.1182C472.51 37.0481 466.034 31.5863 453.359 31.5863C433.447 31.5863 421.647 46.7966 421.647 65.8325C421.647 84.8684 433.447 100.079 453.359 100.079C466.034 100.079 472.625 94.6168 476.428 89.5467V96.5296C476.428 97.4284 477.073 98.0506 477.949 98.0506H487.974C488.872 98.0506 489.495 97.4284 489.495 96.5296V10.7989C489.495 9.92313 488.849 9.27783 487.974 9.27783Z" fill="#191D3A"/>
<path d="M515.606 9.30127C516.504 9.30127 517.127 9.92352 517.127 10.8223V21.216C517.127 22.0917 516.504 22.737 515.606 22.737H505.212C504.313 22.737 503.691 22.0917 503.691 21.216V10.8223C503.691 9.92352 504.313 9.30127 505.212 9.30127H515.606Z" fill="#191D3A"/>
<path d="M515.49 33.522C516.389 33.522 517.011 34.1442 517.011 35.043V96.5525C517.011 97.4282 516.389 98.0735 515.49 98.0735H505.35C504.475 98.0735 503.829 97.4282 503.829 96.5525V35.043C503.829 34.1442 504.475 33.522 505.35 33.522H515.49Z" fill="#191D3A"/>
<path d="M85.1085 107.14H22.0319C9.86364 107.14 0 97.2767 0 85.1085V22.0319C0 9.86364 9.86364 0 22.0319 0H85.1085C97.2767 0 107.14 9.86364 107.14 22.0319V85.1085C107.14 97.2767 97.2767 107.14 85.1085 107.14Z" fill="#F9D836"/>
<path d="M32.7482 86.3063V75.9126C32.7482 75.0599 32.0568 74.3916 31.2272 74.3916H20.8335C19.9808 74.3916 19.3125 75.0599 19.3125 75.9126V86.3063C19.3125 87.159 19.9808 87.8273 20.8335 87.8273H31.2272C32.0568 87.8273 32.7482 87.136 32.7482 86.3063Z" fill="#191D3A"/>
<path d="M87.8278 77.3883V26.1342C87.8278 22.3316 84.7858 19.2896 80.9833 19.2896H29.7521C28.7381 19.2896 28.0929 19.6583 27.4706 20.3036L17.1921 30.582C16.4316 31.3426 16.9386 32.4949 18.0679 32.4949H64.4133L35.675 61.2331C35.1679 61.7401 34.9144 62.2471 34.9144 63.1459V70.705C34.9144 71.5807 35.5598 72.226 36.4355 72.226H43.9945C44.8702 72.226 45.4003 71.9725 45.9073 71.4655L74.6457 42.7272V89.0726C74.6457 90.2248 75.7978 90.7319 76.5584 89.9713L86.8369 79.6929C87.4591 79.0245 87.8278 78.4023 87.8278 77.3883Z" fill="#191D3A"/>
</g>
<defs>
<clipPath id="clip0_1_2666">
<rect width="596" height="120" fill="white" transform="translate(-0.00012207 0.552734)"/>
</clipPath>
</defs>
</svg>
