<svg width="699" height="126" viewBox="0 0 699 126" fill="none" xmlns="http://www.w3.org/2000/svg">
<g clip-path="url(#clip0_14173_15287)">
<path d="M11.6544 2.1582C8.56243 2.1582 5.58936 3.40689 3.44876 5.5475C1.24869 7.74757 0 10.6612 0 13.7532V123.519H31.0388V75.8308H75.0402C78.1322 75.8308 81.1052 74.5821 83.3053 72.4415C85.5054 70.2414 86.6946 67.2683 86.6946 64.1764V51.0354H31.0388V32.7808C31.0388 31.2943 31.6334 29.8077 32.7037 28.7969C33.774 27.7266 35.2011 27.132 36.7471 27.132H89.4893C92.5813 27.132 95.5544 25.8833 97.7544 23.7427C99.8356 21.5426 101.084 18.5695 101.084 15.4775V2.1582H11.6544Z" fill="#73D700"/>
<path d="M151.507 98.5466C150.021 98.5466 148.534 97.952 147.523 96.8817C146.453 95.8114 145.858 94.3843 145.858 92.8978V13.8737C145.858 12.3277 145.561 10.7817 144.967 9.35463C144.372 7.92756 143.48 6.61941 142.41 5.54911C141.28 4.4788 139.972 3.58688 138.545 2.99227C137.118 2.39766 135.572 2.10035 134.026 2.15981H114.463V111.806C114.463 114.898 115.712 117.872 117.912 120.131C120.112 122.331 123.085 123.58 126.236 123.58H189.979C193.071 123.58 196.103 122.331 198.244 120.131C200.444 117.931 201.693 114.958 201.693 111.806V98.5466H151.507Z" fill="#73D700"/>
<path d="M246.414 123.52H215.315V60.1339C215.315 57.0419 216.564 54.1283 218.705 51.9282C220.905 49.7282 223.878 48.4795 226.97 48.4795H246.414V123.52Z" fill="#73D700"/>
<path d="M234.759 37.1809H215.315V13.8126C215.315 10.7206 216.564 7.80703 218.705 5.60696C220.905 3.40689 223.878 2.1582 226.97 2.1582H234.7C237.792 2.1582 240.765 3.40689 242.905 5.60696C245.106 7.80703 246.354 10.7206 246.354 13.8126V25.5265C246.354 28.6185 245.106 31.5916 242.905 33.7322C240.765 35.9322 237.851 37.1215 234.759 37.1809Z" fill="#73D700"/>
<path d="M445.425 103.778H423.959C420.986 103.778 418.073 102.588 415.932 100.448C413.851 98.3072 412.602 95.453 412.602 92.4205V72.0253H445.425C449.587 72.0253 453.631 73.6902 456.604 76.6632C459.577 79.6363 461.242 83.6797 461.242 87.842C461.242 92.0043 459.577 96.0476 456.604 99.0207C453.631 101.994 449.587 103.659 445.425 103.659V103.778ZM412.781 21.7804H441.976C445.722 21.7804 449.349 23.267 451.966 25.9427C454.642 28.6185 456.128 32.1862 456.128 35.9322C456.128 39.6783 454.642 43.246 451.966 45.9217C449.29 48.538 445.722 50.0246 441.976 50.0246H422.77C420.094 50.0246 417.538 48.9543 415.694 47.0515C413.851 45.1487 412.781 42.6514 412.721 39.9756V21.7804H412.781ZM478.664 63.6412C478.01 63.0466 476.107 61.5601 475.631 61.1438C478.545 57.9329 480.745 54.1869 482.172 50.084C483.599 45.9812 484.194 41.6405 483.837 37.3593C483.837 15.1802 469.507 2.1582 447.387 2.1582H399.58C396.548 2.1582 393.575 3.40689 391.375 5.5475C389.234 7.74757 387.985 10.6612 387.985 13.7532V111.745C387.985 114.837 389.234 117.751 391.375 119.951C393.575 122.151 396.488 123.34 399.58 123.34H452.858C475.037 123.34 488.356 110.437 488.356 88.3177C488.475 83.7391 487.702 79.2201 486.037 74.9389C484.372 70.7766 481.875 66.9116 478.664 63.6412Z" fill="#73D700"/>
<path d="M597.353 2.09961H583.677C580.704 2.09961 577.79 3.28884 575.65 5.42944C573.509 7.57005 572.32 10.4242 572.32 13.4567V85.4644C572.32 95.8107 565.184 102.47 552.876 102.47H547.227C534.919 102.47 527.843 95.5728 527.843 85.4644V2.09961H514.048C511.075 2.09961 508.161 3.28884 506.02 5.42944C503.88 7.57005 502.75 10.4242 502.75 13.4567V89.5672C502.75 110.914 517.377 125.125 542.767 125.125H557.454C582.844 125.125 597.472 110.914 597.472 89.5672L597.353 2.09961Z" fill="#73D700"/>
<path d="M646.161 26.8354H685.406C688.498 26.8354 691.411 25.5867 693.612 23.4461C695.812 21.246 697.001 18.3324 697.001 15.2405V2.04004H646.042C636.35 2.21842 627.074 6.20233 620.296 13.1593C613.517 20.0568 609.652 29.4517 609.712 39.1439C609.771 48.7172 613.577 57.8148 620.355 64.5934C627.134 71.3125 636.291 75.0586 645.864 75.0586H661.919C664.892 75.2964 667.686 76.6045 669.708 78.7452C671.73 80.8858 672.86 83.7994 672.86 86.7724C672.86 89.7455 671.73 92.5996 669.708 94.7997C667.686 96.9998 664.892 98.3079 661.919 98.4863H610.96V111.687C610.96 114.779 612.209 117.752 614.35 119.892C616.55 122.092 619.463 123.341 622.555 123.341H662.216C671.968 123.163 681.244 119.179 688.022 112.281C694.86 105.324 698.666 95.9889 698.666 86.2967C698.606 76.7829 694.86 67.6853 688.141 60.9662C681.422 54.2471 672.324 50.4416 662.751 50.4416H646.459C643.486 50.2037 640.691 48.8956 638.669 46.755C636.648 44.5549 635.518 41.7007 635.518 38.7277C635.518 35.7546 636.648 32.841 638.669 30.7004C640.691 28.5003 643.486 27.1922 646.459 27.0138" fill="#73D700"/>
<path d="M364.325 101.876L343.514 72.8584L325.318 97.8322L340.778 119.119C343.038 122.211 346.427 124.292 350.233 124.887C354.038 125.482 357.903 124.59 360.995 122.33H361.352C364.444 120.071 366.525 116.681 367.179 112.876C367.774 109.07 366.822 105.205 364.622 102.113" fill="#73D700"/>
<path d="M335.955 62.8097L317.82 37.8359L295.165 6.49983C292.905 3.40784 289.516 1.32669 285.711 0.732081C281.905 0.137468 278.04 1.02939 274.948 3.28892H274.591C271.499 5.54845 269.418 8.93774 268.824 12.7433C268.229 16.5488 269.121 20.4138 271.38 23.5058L299.684 62.5124L271.38 101.638C269.121 104.73 268.169 108.654 268.824 112.4C269.418 116.206 271.44 119.595 274.591 121.914H274.948C278.04 124.174 281.905 125.066 285.711 124.471C289.516 123.876 292.905 121.795 295.165 118.703L312.052 95.6918L335.955 62.8097Z" fill="#FDAC2A"/>
<path d="M361.096 3.52622H360.739C357.647 1.26669 353.723 0.374773 349.977 0.969386C346.171 1.564 342.782 3.64515 340.522 6.73713L325.062 27.727L343.436 52.7007L364.248 23.6836C366.507 20.5916 367.458 16.7266 366.804 12.9211C366.21 9.11559 364.129 5.72629 360.977 3.46676" fill="#73D700"/>
</g>
<defs>
<clipPath id="clip0_14173_15287">
<rect width="698.666" height="124.573" fill="white" transform="translate(0 0.552734)"/>
</clipPath>
</defs>
</svg>
