<svg width="422" height="181" viewBox="0 0 422 181" fill="none" xmlns="http://www.w3.org/2000/svg">
<g clip-path="url(#clip0_14230_16905)">
<path d="M0 0.209961V167.16H75.24V159.99H7.17V7.37996H414V159.99H345.33V167.16H421.17V0.209961H0Z" fill="black"/>
<path d="M113.43 179.73V166.08H96.03V179.73H90V147.24H96.06V160.65H113.46V147.24H119.52V179.73H113.43Z" fill="black"/>
<path d="M166.201 163.499C166.201 172.739 158.491 180.209 148.951 180.209C139.411 180.209 131.701 172.739 131.701 163.499C131.701 154.259 139.411 146.789 148.951 146.789C158.461 146.789 166.201 154.259 166.201 163.499ZM137.971 163.499C137.971 169.589 142.711 174.539 148.921 174.539C155.161 174.539 159.871 169.589 159.871 163.499C159.871 157.409 155.161 152.459 148.921 152.459C142.711 152.459 137.971 157.409 137.971 163.499Z" fill="black"/>
<path d="M201.179 179.73L183.989 157.02V179.73H178.049V147.24H184.409L201.599 169.95V147.24H207.539V179.73H201.179Z" fill="black"/>
<path d="M253.89 163.499C253.89 172.739 246.18 180.209 236.64 180.209C227.1 180.209 219.39 172.739 219.39 163.499C219.39 154.259 227.1 146.789 236.64 146.789C246.18 146.789 253.89 154.259 253.89 163.499ZM225.69 163.499C225.69 169.589 230.4 174.539 236.64 174.539C242.88 174.539 247.59 169.589 247.59 163.499C247.59 157.409 242.88 152.459 236.64 152.459C230.4 152.459 225.69 157.409 225.69 163.499Z" fill="black"/>
<path d="M280.289 147.24C290.309 147.24 294.329 150.45 294.329 157.92C294.329 163.32 292.229 166.44 287.219 167.73L295.349 179.73H288.389L280.919 168.54C280.289 168.57 279.659 168.6 278.849 168.6H272.099V179.73H266.039V147.24H280.289ZM272.129 163.92H280.589C285.989 163.92 288.029 162.27 288.029 158.31C288.029 154.35 285.989 152.7 280.589 152.7H272.129V163.92Z" fill="black"/>
<path d="M331.141 150.3L328.591 154.98C325.081 153.03 320.701 151.89 317.191 151.92C314.191 151.92 311.641 153.12 311.641 155.91C311.641 157.71 312.691 158.55 318.661 160.08C326.641 162.21 331.951 163.65 331.951 170.34C331.951 176.85 326.491 180.21 318.841 180.21C313.201 180.21 307.801 178.68 303.691 175.95L306.421 171.42C310.321 173.79 315.181 175.02 319.501 175.02C322.711 175.02 325.561 173.79 325.561 171.06C325.561 167.73 323.401 167.4 316.921 165.75C309.361 163.83 305.071 162.09 305.071 156.6C305.071 149.79 310.771 146.76 317.791 146.76C322.651 146.79 327.541 148.08 331.141 150.3Z" fill="black"/>
<path d="M112.35 41.2502V115.68L118.17 116.46V120.81H89.2802V116.46L95.4902 115.68V81.8102H58.5602V115.68L64.2602 116.46V120.81H35.9102V116.46L41.6102 115.68V41.2502L35.9102 40.4702V36.2402H64.2602V40.4702L58.5602 41.2502V73.0802H95.4902V41.2502L89.2802 40.4702V36.2402H118.17V40.4702L112.35 41.2502Z" fill="black"/>
<path d="M151.74 116.19L157.2 116.97V120.81H130.62V116.97L136.08 116.19V65.2499L130.62 64.4699V60.6299H151.74V116.19Z" fill="black"/>
<path d="M168.72 117.09L174.03 116.34V40.7102L168.72 39.9602V36.2402H189.84V116.34L195.3 117.09V120.81H168.72V117.09Z" fill="black"/>
<path d="M227.549 60.6304H241.799V66.2704H227.549V102.09C227.549 111.33 229.499 114.3 237.899 114.3C241.019 114.3 243.749 114.3 246.329 113.67V117.78C238.679 120.48 232.199 121.62 226.769 121.62C214.589 121.62 211.739 116.1 211.739 105.57V66.2704H200.609V60.6304H212.129V48.0604L227.549 43.4404V60.6304Z" fill="black"/>
<path d="M313.231 91.2902C313.231 110.04 300.541 122.61 280.591 122.61C261.271 122.61 248.971 114.39 248.971 91.2902C248.971 71.9102 261.661 58.9502 281.641 58.9502C301.291 58.9502 313.231 70.6502 313.231 91.2902ZM295.861 90.9002C295.861 71.9102 290.161 63.5702 280.951 63.5702C272.011 63.5702 266.311 71.5202 266.311 90.9002C266.311 110.01 272.011 117.99 280.951 117.99C290.551 117.99 295.861 110.43 295.861 90.9002Z" fill="black"/>
<path d="M385.259 116.97V120.81H358.679V116.97L363.989 116.19V81.93C363.989 72.42 360.479 68.19 353.219 68.19C349.859 68.19 344.549 70.5 340.649 73.2V116.19L346.079 116.97V120.81H319.379V116.97L324.809 116.19V65.64L319.379 64.86V60.63H340.619V68.97C347.219 63.72 353.579 59.46 362.519 59.46C374.429 59.46 379.769 66.39 379.769 80.01V116.22L385.259 116.97Z" fill="black"/>
<path d="M152.522 44.7002C152.522 49.3802 148.682 53.1602 143.972 53.1602C139.232 53.1602 135.422 49.3802 135.422 44.7002C135.422 40.0202 139.262 36.2402 143.972 36.2402C148.682 36.2402 152.522 40.0202 152.522 44.7002Z" fill="black"/>
</g>
<defs>
<clipPath id="clip0_14230_16905">
<rect width="421.17" height="180" fill="white" transform="translate(0 0.209961)"/>
</clipPath>
</defs>
</svg>
