<svg width="831" height="121" viewBox="0 0 831 121" fill="none" xmlns="http://www.w3.org/2000/svg">
<g clip-path="url(#clip0_14164_14892)">
<path d="M507.507 72.7585H481.555V32.5441C481.555 32.1687 481.395 31.7934 481.127 31.5253C480.858 31.2572 480.483 31.0963 480.108 31.0963H463.539C463.164 31.0963 462.789 31.2572 462.521 31.5253C462.253 31.7934 462.092 32.1687 462.092 32.5441V87.9864C462.092 88.7907 462.735 89.4878 463.593 89.4878H507.614C507.99 89.4878 508.365 89.3269 508.687 89.0588C508.955 88.7907 509.116 88.4154 509.116 87.9864V74.2063C509.116 73.8309 508.955 73.4556 508.687 73.1875C508.258 72.8658 507.883 72.7585 507.507 72.7585ZM695.443 53.1339C695.443 56.7264 692.601 58.8175 687.936 58.8175H679.518V47.3966H688.043C692.547 47.3966 695.443 49.2197 695.443 52.973V53.1339ZM704.29 70.9355C704.183 70.7746 704.076 70.5602 704.076 70.3993C704.022 70.1848 704.022 69.9703 704.076 69.8095C704.129 69.595 704.183 69.4341 704.344 69.2733C704.451 69.1124 704.612 68.9516 704.773 68.898C711.046 65.4127 714.853 59.729 714.853 51.7934V51.5253C714.853 45.5199 713.03 41.1768 709.491 37.6915C705.416 33.6164 698.821 31.0427 688.472 31.0427H661.395C661.019 31.0427 660.644 31.2036 660.376 31.4717C660.108 31.7398 659.947 32.1151 659.947 32.4904V87.9328C659.947 88.7371 660.59 89.4341 661.448 89.4341H678.017C678.821 89.4341 679.518 88.7907 679.518 87.9328V72.7585H683.7L694.263 88.7907C694.531 89.2197 695.014 89.4341 695.497 89.4341H714.156C715.336 89.4341 716.033 88.0937 715.389 87.1285L704.29 70.9355ZM635.389 60.3725C635.389 67.2358 630.724 73.402 623.271 73.402C615.765 73.402 610.992 67.1285 610.992 60.2116V60.0508C610.992 53.1875 615.657 47.0213 623.11 47.0213C630.617 47.0213 635.389 53.2947 635.389 60.2116V60.3725ZM623.271 29.7559C605.255 29.7559 591.314 43.2679 591.314 60.2116V60.3725C591.314 77.3162 605.094 90.6674 623.11 90.6674C641.126 90.6674 655.068 77.1553 655.068 60.2116V60.0508C655.068 43.1071 641.287 29.7559 623.271 29.7559ZM455.282 73.402H425.738V71.9543V68.5762V67.0749H452.762C453.566 67.0749 454.263 66.4315 454.263 65.5736V54.4207C454.263 54.0454 454.102 53.6701 453.834 53.3484C453.566 53.0803 453.191 52.9194 452.762 52.9194H425.738V47.0213H454.853C455.657 47.0213 456.354 46.3778 456.354 45.5199V32.4904C456.354 32.1151 456.194 31.7398 455.925 31.4717C455.657 31.2036 455.282 31.0427 454.907 31.0427H408.043C407.668 31.0427 407.293 31.2036 407.025 31.4717C406.757 31.7398 406.596 32.1151 406.596 32.4904V87.9328C406.596 88.7371 407.239 89.4341 408.097 89.4341H455.389C456.194 89.4341 456.891 88.7907 456.891 87.9328V74.9033C456.891 74.528 456.73 74.1526 456.462 73.8845C456.033 73.5628 455.657 73.402 455.282 73.402ZM766.757 72.7585H740.805V32.5441C740.805 32.1687 740.644 31.7934 740.376 31.5253C740.108 31.2572 739.732 31.0963 739.357 31.0963H722.789C722.413 31.0963 722.038 31.2572 721.77 31.5253C721.502 31.7934 721.341 32.1687 721.341 32.5441V87.9864C721.341 88.7907 721.984 89.4878 722.842 89.4878H766.757C767.561 89.4878 768.258 88.8443 768.258 87.9864V74.2063C768.258 73.9918 768.204 73.8309 768.151 73.6164C768.097 73.4556 767.99 73.2947 767.829 73.1339C767.668 72.973 767.507 72.8658 767.346 72.8122C767.185 72.7585 766.971 72.7585 766.757 72.7585ZM591.904 31.0427H574.96C574.317 31.0427 573.727 31.4717 573.566 32.1151L566.971 54.5816C566.542 55.9757 564.612 56.0293 564.129 54.6352L556.515 31.9006C556.408 31.6325 556.247 31.3644 555.979 31.15C555.711 30.9891 555.443 30.8819 555.121 30.8819H540.376C540.054 30.8819 539.786 30.9891 539.518 31.15C539.25 31.3108 539.089 31.5789 538.982 31.9006L531.368 54.6352C530.939 56.0293 528.955 55.9757 528.526 54.5816L521.931 32.1151C521.824 31.7934 521.663 31.5253 521.395 31.3644C521.126 31.15 520.805 31.0963 520.483 31.0963H503.164C502.95 31.0963 502.681 31.15 502.521 31.2572C502.306 31.3644 502.145 31.5253 501.984 31.6862C501.824 31.9006 501.77 32.1151 501.716 32.3296C501.663 32.5441 501.716 32.8122 501.77 33.0266L519.893 88.8443C520 89.166 520.161 89.3805 520.429 89.595C520.698 89.7559 520.966 89.8631 521.287 89.8631H536.194C536.837 89.8631 537.373 89.4878 537.588 88.898L546.113 64.8229C546.596 63.4824 548.419 63.4824 548.901 64.8229L557.427 88.898C557.534 89.166 557.695 89.4341 557.963 89.595C558.231 89.7559 558.499 89.8631 558.821 89.8631H573.727C574.37 89.8631 574.907 89.4341 575.121 88.8443L593.244 33.0266C593.298 32.8122 593.352 32.5441 593.298 32.3296C593.244 32.1151 593.191 31.9006 593.03 31.6862C592.869 31.4717 592.708 31.3644 592.494 31.2572C592.333 31.0963 592.118 31.0427 591.904 31.0427ZM216.301 31.0427H199.732C199.518 31.0427 199.357 31.0963 199.143 31.15C198.982 31.2036 198.821 31.3108 198.66 31.4717C198.499 31.6325 198.392 31.7934 198.338 31.9543C198.285 32.1151 198.231 32.3296 198.231 32.5441V51.6862H180.376V32.4904C180.376 32.1151 180.215 31.7398 179.947 31.4717C179.679 31.2036 179.303 31.0427 178.928 31.0427H162.36C162.145 31.0427 161.984 31.0963 161.77 31.15C161.609 31.2036 161.448 31.3108 161.287 31.4717C161.126 31.6325 161.019 31.7934 160.966 31.9543C160.912 32.1151 160.858 32.3296 160.858 32.4904V87.9328C160.858 88.7371 161.502 89.4341 162.36 89.4341H178.928C179.732 89.4341 180.429 88.7907 180.429 87.9328V68.469H198.285V87.9328C198.285 88.7371 198.928 89.4341 199.786 89.4341H216.354C217.159 89.4341 217.856 88.7907 217.856 87.9328V32.4904C217.856 32.1151 217.695 31.7398 217.427 31.4717C217.051 31.2036 216.676 31.0427 216.301 31.0427ZM810.403 60.3189C810.403 68.7371 804.665 72.4368 795.711 72.4368H792.44V48.04H795.711C804.665 48.04 810.403 51.6862 810.403 60.158V60.3189ZM795.282 31.0427H774.424C774.21 31.0427 774.049 31.0963 773.834 31.15C773.673 31.2036 773.513 31.3108 773.352 31.4717C773.191 31.6325 773.084 31.7934 773.03 31.9543C772.976 32.1151 772.923 32.3296 772.923 32.5441V87.9864C772.923 88.7907 773.566 89.4878 774.37 89.4878H794.585C818.177 89.4878 830.027 77.2089 830.027 59.9435V59.7291C830.081 42.4636 818.499 31.0427 795.282 31.0427ZM318.553 51.7398C312.387 50.5601 310.778 49.5414 310.778 47.9864V47.7719C310.778 46.3778 312.118 45.3591 315.014 45.3591C320.054 45.3591 326.113 46.8604 331.368 50.3457C332.011 50.7746 332.923 50.6138 333.352 49.9703L341.18 39.1392C341.287 38.9784 341.395 38.8175 341.395 38.603C341.448 38.3886 341.448 38.2277 341.395 38.0132C341.341 37.7988 341.287 37.6379 341.18 37.477C341.073 37.3162 340.966 37.1553 340.805 37.0481C334.263 32.3296 326.274 29.9703 315.657 29.9703C299.572 29.9703 290.885 38.5494 290.885 49.6486V49.8095C290.885 62.1419 302.413 65.8953 315.496 68.5762C321.77 69.8095 323.593 70.721 323.593 72.4368V72.5977C323.593 74.2063 322.092 75.1178 318.606 75.1178C312.118 75.1178 305.309 73.3484 299.25 69.0588C298.928 68.8443 298.553 68.7907 298.231 68.7907C297.856 68.8443 297.534 69.0052 297.32 69.3269L288.74 79.5682C288.633 79.729 288.526 79.8899 288.472 80.1044C288.419 80.3189 288.419 80.4797 288.419 80.6942C288.419 80.9087 288.472 81.0695 288.58 81.2304C288.687 81.3912 288.794 81.5521 288.955 81.6593C296.301 87.5038 306.488 90.5065 317.748 90.5065C333.459 90.5065 343.539 82.9998 343.539 70.721V70.5601C343.486 58.8175 333.459 54.4744 318.553 51.7398ZM398.982 31.0427H348.043C347.829 31.0427 347.668 31.0963 347.454 31.15C347.293 31.2036 347.132 31.3108 346.971 31.4717C346.81 31.6325 346.703 31.7934 346.649 31.9543C346.596 32.1151 346.542 32.3296 346.542 32.5441V46.1097C346.542 46.914 347.186 47.6111 348.043 47.6111H363.754V87.9864C363.754 88.7907 364.397 89.4878 365.255 89.4878H381.824C382.628 89.4878 383.325 88.8443 383.325 87.9864V47.5575H399.035C399.25 47.5575 399.411 47.5038 399.625 47.4502C399.786 47.3966 399.947 47.2894 400.108 47.1285C400.269 46.9677 400.376 46.8068 400.429 46.6459C400.483 46.4851 400.537 46.2706 400.537 46.0561V32.4904C400.537 32.1151 400.376 31.7398 400.108 31.4717C399.732 31.2036 399.357 31.0427 398.982 31.0427ZM267.132 60.3725C267.132 67.2358 262.467 73.402 255.014 73.402C247.507 73.402 242.735 67.1285 242.735 60.2116V60.0508C242.735 53.1875 247.4 47.0213 254.853 47.0213C262.36 47.0213 267.132 53.2947 267.132 60.2116V60.3725ZM255.068 29.7559C237.051 29.7559 223.11 43.2679 223.11 60.2116V60.3725C223.11 77.3162 236.891 90.6674 254.907 90.6674C272.923 90.6674 286.864 77.1553 286.864 60.2116V60.0508C286.864 43.1071 273.084 29.7559 255.068 29.7559Z" fill="#FF7346"/>
<path d="M120.054 103.535C120.054 112.758 112.601 120.211 103.378 120.211H16.6756C7.45308 120.211 0 112.758 0 103.535V16.8865C0 7.66402 7.45308 0.210938 16.6756 0.210938H103.324C112.547 0.210938 120 7.66402 120 16.8865V103.535H120.054Z" fill="#FF7346"/>
<path d="M99.3482 19.2988H75.3267C74.4152 19.2988 73.7182 19.9959 73.7182 20.9074V42.3551H76.3991C76.56 42.3551 76.7745 42.4624 76.8817 42.5696C76.9889 42.7305 77.0962 42.8913 77.0962 43.0522C77.0962 43.213 77.0426 43.3739 76.9353 43.4811L61.5466 59.1916C61.3321 59.4597 61.1712 59.835 61.1712 60.2104C61.1712 60.5857 61.2785 60.961 61.5466 61.2291L76.9353 76.886C77.0426 76.9932 77.0962 77.1541 77.0962 77.3149C77.0962 77.4758 77.0426 77.6903 76.8817 77.7975C76.7745 77.9583 76.56 78.012 76.3991 78.012H73.7182V99.4597C73.7182 100.371 74.4152 101.068 75.3267 101.068H99.3482C100.26 101.068 100.957 100.371 100.957 99.4597V20.9074C100.957 19.9959 100.206 19.2988 99.3482 19.2988ZM43.2624 43.642C43.1551 43.5348 43.1015 43.3739 43.0479 43.2667C43.0479 43.1058 43.0479 42.9986 43.1015 42.8377C43.1551 42.7305 43.2624 42.5696 43.3696 42.516C43.4769 42.4087 43.6377 42.4087 43.745 42.3551H46.3723V20.9074C46.3723 19.9959 45.6216 19.2988 44.7637 19.2988H20.6887C19.7771 19.2988 19.0801 19.9959 19.0801 20.9074V99.5133C19.0801 100.425 19.7771 101.122 20.6887 101.122H44.7637C45.6753 101.122 46.3723 100.425 46.3723 99.5133V78.0656H43.745C43.5841 78.0656 43.4769 78.012 43.3696 77.9047C43.2624 77.7975 43.1551 77.6903 43.1015 77.583C43.0479 77.4758 43.0479 77.3149 43.0479 77.1541C43.1015 76.9932 43.1551 76.886 43.2624 76.7787L58.5439 61.1755C58.7584 60.9074 58.9192 60.5321 58.9192 60.1567C58.9192 59.7814 58.812 59.4061 58.5439 59.138L43.2624 43.642Z" fill="white"/>
</g>
<defs>
<clipPath id="clip0_14164_14892">
<rect width="830.027" height="120" fill="white" transform="translate(0 0.210938)"/>
</clipPath>
</defs>
</svg>
