<svg xmlns="http://www.w3.org/2000/svg" xmlns:xlink="http://www.w3.org/1999/xlink" version="1.1" id="Layer_1" x="0px" y="0px" style="enable-background:new 0 0 1080 1080;" xml:space="preserve" viewBox="159.94 432.51 760.24 214.99">
<style type="text/css">
	.st0{fill:#FF5B00;}
	.st1{fill:#4D40CC;}
	.st2{fill:#00CBD1;}
	.st3{fill:#FFC200;}
</style>
<g id="Klook_logo_horizontal_00000134229971227977709210000011479100769956823687_">
	<g>
		<path class="st0" d="M889.1,510.6l-33.3,36.7l0-72.3c0-2.5-2.5-4.2-4.8-3.3l-17.1,6.4c-1.4,0.5-2.3,1.9-2.3,3.3v120.4    c0,2,1.6,3.6,3.6,3.6h17.1c2,0,3.6-1.6,3.6-3.6v-38.3l35.6,40.7c0.7,0.8,1.7,1.2,2.7,1.2h22.4c3.1,0,4.7-3.6,2.7-5.9l-39.6-44.6    l36.5-39.3c2.1-2.3,0.5-6-2.6-6h-21.6C890.8,509.4,889.8,509.9,889.1,510.6z"/>
		<path class="st0" d="M763.4,608.5c-27.8,0-50.4-23.5-50.4-52.5c0-27.4,21.8-48.8,49.6-48.8c29.2,0,50.4,21.3,50.4,50.6    C812.9,587.2,792.1,608.5,763.4,608.5z M764.1,585.8c14.5,0,25-11.5,25-27.2c0-16.8-10.3-28.5-25-28.5c-15.3,0-26,11.3-26,27.5    C738.1,573.7,749.3,585.8,764.1,585.8z"/>
		<path class="st0" d="M648.8,608.5c-27.8,0-50.4-23.5-50.4-52.5c0-27.4,21.8-48.8,49.6-48.8c29.2,0,50.4,21.3,50.4,50.6    C698.4,587.2,677.5,608.5,648.8,608.5z M649.6,585.8c14.5,0,25-11.5,25-27.2c0-16.8-10.3-28.5-25-28.5c-15.3,0-26,11.3-26,27.5    C623.6,574,634.5,585.8,649.6,585.8z"/>
		<path class="st0" d="M555.6,602.4l0.1-121.1c0-1.5,0.9-2.8,2.3-3.4l16.8-6.3c2.4-0.9,4.9,0.9,4.9,3.4l-0.2,127.5    c0,2-1.6,3.6-3.6,3.6h-16.8C557.2,606,555.6,604.4,555.6,602.4z"/>
		<path class="st0" d="M508.7,510.6l-33.3,36.7l0-72.3c0-2.5-2.5-4.2-4.8-3.3l-17.1,6.4c-1.4,0.5-2.3,1.9-2.3,3.3v120.4    c0,2,1.6,3.6,3.6,3.6h17.1c2,0,3.6-1.6,3.6-3.6v-38.3l35.6,40.7c0.7,0.8,1.7,1.2,2.7,1.2H536c3.1,0,4.7-3.6,2.7-5.9L499,554.8    l36.5-39.3c2.1-2.3,0.5-6-2.6-6h-21.6C510.3,509.4,509.4,509.9,508.7,510.6z"/>
		<path class="st0" d="M177,488.7c3.4,1.7,7,3.1,10.6,4.2c7.8,2.5,8.9,1.4,5.5-5.5c-1.4-2.9-3-5.8-4.8-8.5    c-3.4-5.3-5.7-7.2-11.1-2.7c-1.1,0.9-2.1,1.9-3,2.9C171,482.9,171,485.8,177,488.7z"/>
		<path class="st1" d="M254.7,638.2c-1.3-3.8-3-7.6-4.8-11.2c-4-7.8-5.6-7.8-8.3,0c-1.1,3.3-2.1,6.6-2.8,10    c-1.4,6.6-1.2,9.8,6.4,10.4c1.5,0.1,3,0.1,4.5,0.1C254.9,647.2,257,644.9,254.7,638.2z"/>
		<path class="st2" d="M360.9,581.6c-3.1-3.6-5.9-7.4-8.4-11.4c-5.4-8.6-4.5-10.2,4.8-8.4c4,0.8,7.8,1.8,11.6,3    c7.4,2.4,10.4,4.5,6.7,12.5c-0.7,1.6-1.6,3.1-2.5,4.6C369.8,587,366.3,587.9,360.9,581.6z"/>
		<path class="st3" d="M310.3,445.8c-2.7,2.3-5.6,4.4-8.6,6.3c-6.5,4.1-7.7,3.4-6.3-3.6c0.6-3,1.3-5.9,2.3-8.8    c1.8-5.6,3.4-7.9,9.4-5.1c1.2,0.6,2.4,1.2,3.4,1.9C314.4,439.1,315,441.8,310.3,445.8z"/>
		<path class="st2" d="M196.3,575.4c-30.1,18-38.8-4.7-35.8-34.4c4.7-46.5,35.8-47.3,50.3-14.1C219.7,547,216.3,563.4,196.3,575.4z"/>
		<path class="st0" d="M231.3,607.6c0,5-0.2,10-0.6,15c-0.8,10.1-7.4,18.6-20.7,10.1c-5.5-3.5-10.6-7.4-15.4-11.7    c-11-10-13.8-19.8,0-31.9c3.5-3.1,7.1-6,10.8-8.8c17.3-13,24-4.2,25.3,14C231.1,598.7,231.3,603.1,231.3,607.6z"/>
		<path class="st3" d="M331.8,597.8c-10.7-9.1-22.1-17.5-34.1-25.1c-25.7-16.2-30.6-13.5-25.1,14.4c2.3,11.8,5.3,23.4,8.9,34.6    c7.1,22,13.5,31.1,37.4,20c4.8-2.2,9.3-4.7,13.7-7.6C347.9,624.3,350.6,613.8,331.8,597.8z"/>
		<path class="st0" d="M319.4,484c-3.3,4.3-6.4,8.7-9.5,13.2c-18,26.6-16.2,27.6,9.5,38.9c9.3,4.1,18.8,7.6,28.5,10.7    c35.6,11.2,41.1-1.3,30.7-32.3c-3-8.8-7.1-17.2-12.1-24.8C350.7,466,337.8,459.9,319.4,484z"/>
		<path class="st1" d="M263.2,432.8c-8.9,0.9-17.5,2.8-25.7,5.7c-22.2,7.9-18.9,17.3-6.7,35.1c2.5,3.7,5.1,7.3,7.8,10.9    c14.3,18.8,18,23,29.6-3.7c3.8-8.7,7.1-17.7,10-26.8C283.2,438.5,282.5,430.9,263.2,432.8z"/>
	</g>
</g>
</svg>