<svg width="462" height="131" viewBox="0 0 462 131" fill="none" xmlns="http://www.w3.org/2000/svg">
<g clip-path="url(#clip0_14235_14549)">
<path d="M341.373 29.6023H313.349C312.507 29.6023 311.829 30.2812 311.829 31.1229V126.11C311.829 126.979 312.535 127.63 313.349 127.63H341.319C342.187 127.63 342.839 126.924 342.839 126.11V31.1773C342.839 30.3083 342.187 29.6023 341.319 29.6023H341.373ZM407.359 130.21C439.347 130.21 461.641 109.002 461.641 78.6707C461.641 48.339 439.292 27.1041 407.359 27.1041C376.022 27.1041 353.239 48.8006 353.239 78.6435C353.239 108.486 375.968 130.21 407.359 130.21ZM407.359 55.2091C422.239 55.2091 430.25 65.9895 430.25 78.6435C430.25 91.0803 422.239 102.078 407.359 102.078C392.478 102.078 384.63 91.0803 384.63 78.6435C384.63 66.0166 392.478 55.2091 407.359 55.2091ZM254.668 27.1041C244.431 27.0498 234.574 31.0415 227.269 38.2103C226.482 39.0249 225.178 39.0792 224.336 38.2918C224.309 38.2646 224.282 38.2375 224.255 38.2103C216.95 30.9872 207.066 27.0226 196.802 27.1584C171.086 27.1584 152.431 44.9718 152.431 69.5467V126.164C152.431 127.033 153.137 127.685 153.952 127.685H182.03C182.899 127.685 183.55 126.979 183.55 126.164V70.7415C183.55 63.4912 188.085 56.1867 196.747 56.1867C205.627 56.1867 210.27 63.4912 210.27 70.7415V126.164C210.27 127.033 210.976 127.685 211.791 127.685H239.787C240.656 127.685 241.308 126.979 241.308 126.164V70.7415C241.308 63.4912 245.843 56.1867 254.505 56.1867C263.385 56.1867 268.028 63.4912 268.028 70.7415V126.164C268.028 127.033 268.734 127.685 269.549 127.685H297.464C298.333 127.685 298.984 126.979 298.984 126.164V69.4924C299.093 44.9175 280.411 27.1041 254.614 27.1041H254.668ZM89.541 130.21C120.877 130.21 143.66 108.514 143.66 78.6707C143.66 48.8278 120.932 27.1041 89.541 27.1041C57.5528 27.1041 35.2589 48.3118 35.2589 78.6435C35.2046 109.002 57.5528 130.21 89.541 130.21ZM89.541 55.2091C104.422 55.2091 112.269 65.9895 112.269 78.6435C112.269 91.0803 104.422 102.078 89.541 102.078C74.6602 102.078 66.6496 91.0803 66.6496 78.6435C66.6496 66.0166 74.6602 55.2091 89.541 55.2091Z" fill="#132968"/>
<path d="M23.0641 0.221747C10.7359 -0.158417 0.417113 9.53578 0.00979412 21.864C-0.0173605 22.8415 0.00979412 23.792 0.118413 24.7695C1.31322 37.2335 12.3923 46.3574 24.8563 45.1626C24.8834 45.1626 24.8834 45.1626 24.9106 45.1626C37.3474 44.1308 46.6071 33.1874 45.5752 20.7506C44.5705 9.07415 34.7677 0.140284 23.0641 0.221747Z" fill="#F96B6B"/>
</g>
<defs>
<clipPath id="clip0_14235_14549">
<rect width="461.641" height="130" fill="white" transform="translate(0 0.210938)"/>
</clipPath>
</defs>
</svg>
