<svg width="405" height="141" viewBox="0 0 405 141" fill="none" xmlns="http://www.w3.org/2000/svg">
<g clip-path="url(#clip0_14235_14576)">
<path d="M274.079 1.75977H223.727L202.248 44.295L180.769 1.75977H130.417L177.389 94.8584V138.661H227.037V94.8584L274.079 1.75977Z" fill="#ED3026"/>
<path d="M334.439 0.210938C295.848 0.210938 264.439 31.6194 264.439 70.2109C264.439 108.802 295.848 140.211 334.439 140.211C373.031 140.211 404.439 108.802 404.439 70.2109C404.439 31.6194 373.031 0.210938 334.439 0.210938ZM334.439 95.1405C320.707 95.1405 309.51 83.9433 309.51 70.2109C309.51 56.4785 320.707 45.2814 334.439 45.2814C348.172 45.2814 359.369 56.4785 359.369 70.2109C359.439 83.9433 348.242 95.1405 334.439 95.1405Z" fill="#ED3026"/>
<path d="M70 0.210938C31.4084 0.210938 0 31.6194 0 70.2109C0 108.802 31.4084 140.211 70 140.211C108.592 140.211 140 108.802 140 70.2109C140 31.6194 108.592 0.210938 70 0.210938ZM70 95.1405C56.2676 95.1405 45.0704 83.9433 45.0704 70.2109C45.0704 56.4785 56.2676 45.2814 70 45.2814C83.7324 45.2814 94.9296 56.4785 94.9296 70.2109C94.9296 83.9433 83.7324 95.1405 70 95.1405Z" fill="#ED3026"/>
</g>
<defs>
<clipPath id="clip0_14235_14576">
<rect width="404.44" height="140" fill="white" transform="translate(0 0.210938)"/>
</clipPath>
</defs>
</svg>
