<svg width="659" height="115" viewBox="0 0 659 115" fill="none" xmlns="http://www.w3.org/2000/svg">
<g clip-path="url(#clip0_1_2866)">
<path d="M76.3469 12.6223C89.9685 -1.06849 112.268 -1.06849 125.89 12.6223C139.512 26.3132 139.512 48.616 125.89 62.3068L77.9947 110.446C72.5021 115.966 63.6041 115.966 58.2214 110.446L116.003 52.4803C119.958 48.5056 122.155 43.2059 122.155 37.575C122.155 31.9441 119.958 26.6444 116.003 22.6697C107.764 14.4993 94.4724 14.4993 86.2335 22.6697L48.2249 60.7611L30.0993 42.5434C27.3531 39.7832 27.3531 35.3668 30.0993 32.6066C32.8456 29.8463 37.2397 29.8463 39.986 32.6066L48.2249 40.8873L76.3469 12.6223ZM625.385 32.3858C646.367 32.3858 659 45.8557 659 67.8273C659 70.4772 658.67 73.2374 658.67 73.5686H609.896C610.226 82.6223 617.915 89.1365 627.033 89.1365C635.602 89.1365 640.325 84.8305 642.522 78.7579L658.011 83.3951C654.496 95.209 643.731 105.146 626.923 105.146C608.139 105.146 591.661 91.5655 591.661 68.4898C591.881 46.6286 607.919 32.3858 625.385 32.3858ZM297.808 32.3858C319.449 32.3858 327.468 44.6412 327.468 58.4425V92.1175C327.468 95.761 327.907 100.619 328.347 102.938H311.429C311.1 101.171 310.77 97.4172 310.77 94.7674C307.255 100.288 300.664 104.925 290.667 104.925C276.057 104.925 267.159 94.9882 267.159 84.2784C267.159 72.0229 276.167 65.1775 287.482 63.4109L304.289 60.9819C308.134 60.4299 309.452 58.5529 309.452 56.1239C309.452 51.2659 305.717 47.1807 298.027 47.1807C290.008 47.1807 285.504 52.37 284.955 58.3321L268.587 54.9094C269.686 44.1996 279.463 32.3858 297.808 32.3858ZM467.089 2.24382V79.862C467.089 85.8242 470.385 87.4803 474.998 87.4803C475.987 87.4803 476.976 87.4803 478.184 87.3699V103.159C475.658 103.711 473.461 104.042 470.604 104.042C457.312 104.042 448.964 96.2027 448.964 82.9535V2.24382H467.089ZM196.085 14.0577V34.4835H209.817V50.9346H196.085V79.6412C196.085 85.6033 198.831 87.5907 204.104 87.5907C206.301 87.5907 208.828 87.2595 209.817 87.0387V102.386C208.169 103.048 204.763 104.042 199.381 104.042C186.089 104.042 177.74 96.0923 177.74 82.8431V50.9346H165.327V34.4835H168.842C176.092 34.4835 179.388 29.7359 179.388 23.6633V14.0577H196.085ZM411.504 32.6066C428.421 32.6066 436.111 44.7517 436.111 59.7674V102.938H417.656V63.0797C417.656 55.4614 413.921 49.3889 405.023 49.3889C397.004 49.3889 392.28 55.5718 392.28 63.5213V102.827H373.825V34.3731H391.731V42.8747C395.905 35.8085 404.034 32.6066 411.504 32.6066ZM558.266 32.6066C575.183 32.6066 582.873 44.7517 582.873 59.7674V102.938H564.418V63.0797C564.418 55.4614 560.683 49.3889 551.785 49.3889C543.766 49.3889 539.042 55.5718 539.042 63.5213V102.827H520.587V34.3731H538.493V42.8747C542.667 35.8085 550.796 32.6066 558.266 32.6066ZM258.261 33.9315C259.799 33.9315 261.117 34.1523 262.545 34.2627V52.8116C260.348 52.37 258.701 52.2595 256.943 52.2595C247.496 52.2595 239.367 56.8968 239.367 71.5813V102.827H220.912V34.3731H238.817V44.5308C243.102 35.5876 252.439 33.9315 258.261 33.9315ZM359.764 34.4835V102.938H341.309V34.4835H359.764ZM506.526 34.4835V102.938H488.071V34.4835H506.526ZM10.2162 12.6223C23.2885 -0.516438 44.2702 -1.06848 58.1115 11.0766L48.115 21.0135C39.8761 14.3889 27.7925 14.941 20.1028 22.5592C11.864 30.7296 11.864 44.1996 20.1028 52.3699L48.2249 80.5245L96.1202 32.4961C98.8665 29.7359 103.261 29.7359 106.007 32.4961C108.753 35.2564 108.753 39.6728 106.007 42.433L48.2249 100.398L10.2162 62.3068C3.6251 55.6822 0 46.8494 0 37.4646C0 28.0797 3.6251 19.3574 10.2162 12.6223ZM309.452 72.1333L293.963 74.4519C289.239 75.1144 285.504 77.7642 285.504 83.0639C285.504 87.1491 288.361 91.0134 294.402 91.0134C302.202 91.0134 309.452 87.2595 309.452 75.1144V72.1333ZM625.495 47.2911C615.938 47.2911 610.665 54.5781 610.226 60.8715H640.655C640.545 54.0261 636.041 47.2911 625.495 47.2911ZM350.427 0.587667C356.798 0.587667 361.741 5.66652 361.741 12.0703C361.741 18.1428 356.798 23.3321 350.427 23.3321C344.165 23.3321 339.112 18.1428 339.112 12.0703C339.112 5.66652 344.275 0.477257 350.427 0.587667ZM497.298 0.587667C503.67 0.587667 508.613 5.66652 508.613 12.0703C508.613 18.1428 503.67 23.3321 497.298 23.3321C491.037 23.3321 485.984 18.1428 485.984 12.0703C485.984 5.66652 491.037 0.477257 497.298 0.587667Z" fill="#00A88F"/>
</g>
<defs>
<clipPath id="clip0_1_2866">
<rect width="659" height="114" fill="white" transform="translate(0 0.585938)"/>
</clipPath>
</defs>
</svg>
