<svg width="580" height="141" viewBox="0 0 580 141" fill="none" xmlns="http://www.w3.org/2000/svg">
<g clip-path="url(#clip0_14241_15243)">
<path d="M221.554 32.9883C213.095 32.9883 205.528 36.8346 200.341 42.9062V36.5251H179.127V140.228H202.699V103.917C207.864 108.19 214.414 110.762 221.554 110.762C242.377 110.762 259.266 93.3504 259.266 71.8714C259.259 50.3999 242.377 32.9883 221.554 32.9883ZM259.259 71.8788C259.259 50.3999 242.377 32.9883 221.547 32.9883L259.259 71.8788ZM219.196 89.0841C210.082 89.0841 202.699 81.3841 202.699 71.8788C202.699 62.3735 210.089 54.6735 219.196 54.6735C228.311 54.6735 235.694 62.3735 235.694 71.8788C235.694 81.3841 228.304 89.0841 219.196 89.0841Z" fill="#287DFA"/>
<path d="M284.009 110.77C291.818 110.77 298.149 104.44 298.149 96.6302C298.149 88.8209 291.818 82.4902 284.009 82.4902C276.2 82.4902 269.869 88.8209 269.869 96.6302C269.869 104.44 276.2 110.77 284.009 110.77Z" fill="#FFB400"/>
<path d="M150.847 26.6222C158.136 26.6222 164.044 20.7138 164.044 13.4254C164.044 6.13694 158.136 0.228516 150.847 0.228516C143.559 0.228516 137.65 6.13694 137.65 13.4254C137.65 20.7138 143.559 26.6222 150.847 26.6222Z" fill="#287DFA"/>
<path d="M162.628 36.5254H139.057V107.233H162.628V36.5254Z" fill="#287DFA"/>
<path fill-rule="evenodd" clip-rule="evenodd" d="M0 3.5293V23.3282H30.6379V107.232H54.2095V23.3282H84.8474V3.5293H0Z" fill="#287DFA"/>
<path d="M347.642 89.0841C338.528 89.0841 331.145 81.3841 331.145 71.8788C331.145 62.3735 338.528 54.6735 347.642 54.6735C352.321 54.6735 356.536 56.7146 359.543 59.9788L375.141 44.3799C368.105 37.343 358.378 32.9883 347.642 32.9883C326.164 32.9883 308.752 50.3999 308.752 71.8788C308.752 93.3578 326.164 110.769 347.642 110.769C358.378 110.769 368.105 106.415 375.141 99.3778L359.543 83.7788C356.544 87.043 352.329 89.0841 347.642 89.0841Z" fill="#287DFA"/>
<path fill-rule="evenodd" clip-rule="evenodd" d="M553.95 32.9883C544.416 32.9883 536.649 36.5914 531.985 44.5714C527.748 37.1514 519.975 32.9883 510.867 32.9883C501.612 32.9883 494.62 37.2693 490.243 44.542V36.5251H469.029V60.7967V107.233H492.601V63.1325C492.601 57.1567 497.243 52.3157 502.968 52.3157C508.694 52.3157 513.343 57.1567 513.343 63.1325V107.233H535.5V63.1325C535.5 57.1567 540.142 52.3157 545.875 52.3157C551.607 52.3157 556.242 57.1567 556.242 63.1325V107.233H579.814V58.6967C579.799 42.7367 569.77 32.9883 553.95 32.9883Z" fill="#287DFA"/>
<path d="M418.349 32.9883C396.87 32.9883 379.458 50.3999 379.458 71.8788C379.458 93.3578 396.87 110.769 418.349 110.769C439.828 110.769 457.239 93.3578 457.239 71.8788C457.239 50.3999 439.828 32.9883 418.349 32.9883ZM418.349 89.0841C409.234 89.0841 401.851 81.3841 401.851 71.8788C401.851 62.3735 409.234 54.6735 418.349 54.6735C427.463 54.6735 434.846 62.3735 434.846 71.8788C434.854 81.3841 427.463 89.0841 418.349 89.0841Z" fill="#287DFA"/>
<path d="M122.558 36.1562C113.657 36.1562 105.854 40.7615 101.345 47.7173V36.5247H80.1309V71.8784V107.232H103.702H103.783V77.5594C103.783 65.372 112.648 57.7605 123.582 57.7605C124.85 57.7605 126.073 57.9226 127.274 58.1584V36.5247C125.727 36.311 124.165 36.1562 122.558 36.1562Z" fill="#287DFA"/>
</g>
<defs>
<clipPath id="clip0_14241_15243">
<rect width="579.814" height="140" fill="white" transform="translate(0 0.228516)"/>
</clipPath>
</defs>
</svg>
