<svg width="479" height="121" viewBox="0 0 479 121" fill="none" xmlns="http://www.w3.org/2000/svg">
<g clip-path="url(#clip0_1_2934)">
<path fill-rule="evenodd" clip-rule="evenodd" d="M290.171 109.436C281.681 109.436 277.64 104.32 277.64 95.5739V32.4587H300.571V24.6073H277.64V1.03613H249.906L248.604 24.6073H236.31V32.4587H248.604V94.5439C248.604 110.534 257.719 120.969 276.405 120.969C290.407 120.969 298.694 115.228 302.093 107.545L300.791 106.059C297.713 108.322 293.975 109.504 290.154 109.419L290.171 109.436ZM103.257 24.6073H132.123V118.858H103.257V24.6073ZM468.917 117.406C472.603 117.406 475.596 114.417 475.596 110.736C475.596 107.056 472.603 104.067 468.917 104.067C465.23 104.067 462.237 107.056 462.237 110.736C462.237 114.417 465.23 117.406 468.917 117.406ZM468.917 118.74C473.347 118.74 476.932 115.16 476.932 110.736C476.932 106.313 473.347 102.733 468.917 102.733C464.486 102.733 460.901 106.313 460.901 110.736C460.901 115.16 464.486 118.74 468.917 118.74ZM470.27 110.838C470.743 110.736 471.166 110.483 471.487 110.112C471.791 109.74 471.978 109.267 471.978 108.778C471.978 107.343 470.743 106.735 468.967 106.735H466.701V114.586H468.003V111.057H469.052L470.692 113.674C471.217 114.502 471.301 114.552 471.994 114.552H472.654V114.468L470.27 110.821V110.838ZM468.866 110.635H467.987V107.089H468.781C470.083 107.089 470.625 107.579 470.625 108.879C470.625 110.179 470.253 110.635 468.883 110.635H468.866ZM300.182 72.2054C300.182 43.991 319.714 22.4629 350.491 22.4629C381.269 22.4629 400.158 43.3662 400.158 71.3443C400.158 99.3223 381.911 121.019 349.865 121.019C317.82 121.019 300.182 100.133 300.182 72.2054ZM332.65 71.4625C332.65 101.568 334.781 114.164 350.288 114.164C365.795 114.164 367.689 101.365 367.655 71.8846C367.655 41.8297 365.525 29.0311 350.034 29.0311C334.544 29.0311 332.633 41.8297 332.633 71.4794L332.65 71.4625ZM440.557 40.7998L439.915 24.5904H411.894V118.841H440.794V43.3493C442.536 42.7921 444.328 42.5051 446.155 42.4882C451.296 42.4882 457.299 44.6157 475.292 53.1594L477 52.5178V26.0762C473.669 23.6617 469.661 22.3785 465.551 22.446C457.451 22.446 448.032 27.5621 440.54 40.7829L440.557 40.7998ZM202.184 118.875L198.853 107.579C193.966 115.042 184.631 121.002 172.083 121.036C155.731 121.036 145.533 110.804 145.533 95.4388C145.533 73.1003 165.488 68.1362 198.176 61.3147V41.6778C198.176 33.1509 194.963 29.0986 187.134 29.0986C180.353 29.0986 173.757 32.5093 151.689 47.4186L149.981 46.5743L151.283 30.1623C162.951 26.3126 179.947 22.4798 193.746 22.4798C214.343 22.4798 226.857 30.3818 226.857 46.3717V118.875H202.167H202.184ZM198.227 67.9167C178.915 71.969 174.028 75.5824 174.028 90.0864C174.028 103.527 177.63 108.221 185.916 108.271C190.381 108.44 194.744 107.005 198.227 104.219V67.9167ZM73.6292 58.0053C83.3528 58.0053 91.2163 50.0864 91.2163 40.327C91.2163 30.5676 83.3359 22.6486 73.6292 22.6486C63.9224 22.6486 56.042 30.5676 56.042 40.327C56.042 50.0864 63.9224 58.0053 73.6292 58.0053ZM63.4489 98.1573L54.2664 118.875H41.7863L0 24.6073H30.862L63.4489 98.1404V98.1573Z" fill="#008768"/>
</g>
<defs>
<clipPath id="clip0_1_2934">
<rect width="479" height="120" fill="white" transform="translate(0 0.585938)"/>
</clipPath>
</defs>
</svg>
